<svg width="48" height="48" viewBox="0 0 48 48" fill="none" xmlns="http://www.w3.org/2000/svg">
<rect width="48" height="48" rx="24" fill="white" fill-opacity="0.1"/>
<path d="M19 17.3332H17.3334V15.6665H30.6667V17.3332H29V18.9998C29 20.346 28.3199 21.4287 27.4635 22.3137C26.8777 22.919 26.165 23.4765 25.4425 23.9998C26.165 24.5232 26.8777 25.0807 27.4635 25.6859C28.3199 26.5709 29 27.6537 29 28.9998V30.6665H30.6667V32.3332H17.3334V30.6665H19V28.9998C19 27.6537 19.6802 26.5709 20.5366 25.6859C21.1224 25.0807 21.8351 24.5232 22.5576 23.9998C21.8351 23.4765 21.1224 22.919 20.5366 22.3137C19.6802 21.4287 19 20.346 19 18.9998V17.3332ZM20.6667 17.3332V18.9998C20.6667 19.5708 20.8836 20.1123 21.3095 20.6665H26.6906C27.1165 20.1123 27.3334 19.5708 27.3334 18.9998V17.3332H20.6667ZM24 25.0181C23.129 25.6333 22.34 26.219 21.7343 26.845C21.5751 27.0095 21.4334 27.1718 21.3095 27.3332H26.6906C26.5666 27.1718 26.425 27.0095 26.2658 26.845C25.66 26.219 24.871 25.6333 24 25.0181Z" fill="white"/>
</svg>
