<svg width="16" height="16" viewBox="0 0 16 16" fill="none" xmlns="http://www.w3.org/2000/svg">
<circle cx="8" cy="8" r="8" fill="#FB0E55"/>
<path d="M4.16907 5.16659L5.91877 6.33306L7.66304 3.89107C7.79679 3.70381 8.05704 3.66044 8.24429 3.79419C8.28171 3.82092 8.31442 3.85365 8.34117 3.89107L10.0855 6.33306L11.8351 5.16659C12.0266 5.03894 12.2853 5.09068 12.413 5.28215C12.4678 5.36449 12.4916 5.46368 12.4801 5.56196L11.7954 11.3817C11.7707 11.5916 11.5929 11.7497 11.3816 11.7497H4.62263C4.41134 11.7497 4.2335 11.5916 4.20881 11.3817L3.52413 5.56196C3.49725 5.33342 3.66072 5.12635 3.88926 5.09946C3.98755 5.0879 4.08673 5.1117 4.16907 5.16659ZM8.00213 9.24973C8.46233 9.24973 8.83546 8.87665 8.83546 8.4164C8.83546 7.95615 8.46233 7.58306 8.00213 7.58306C7.54188 7.58306 7.16879 7.95615 7.16879 8.4164C7.16879 8.87665 7.54188 9.24973 8.00213 9.24973Z" fill="white"/>
</svg>
