<svg width="15" height="16" viewBox="0 0 15 16" fill="none" xmlns="http://www.w3.org/2000/svg">
<path d="M8.75 9.50117V10.8941C8.359 10.7467 7.93831 10.6665 7.5 10.6665C5.42893 10.6665 3.75 12.4574 3.75 14.6665H2.5C2.5 11.721 4.73857 9.33317 7.5 9.33317C7.93162 9.33317 8.3505 9.3915 8.75 9.50117ZM7.5 8.6665C5.42812 8.6665 3.75 6.8765 3.75 4.6665C3.75 2.4565 5.42812 0.666504 7.5 0.666504C9.57188 0.666504 11.25 2.4565 11.25 4.6665C11.25 6.8765 9.57188 8.6665 7.5 8.6665ZM7.5 7.33317C8.88125 7.33317 10 6.13984 10 4.6665C10 3.19317 8.88125 1.99984 7.5 1.99984C6.11875 1.99984 5 3.19317 5 4.6665C5 6.13984 6.11875 7.33317 7.5 7.33317ZM11.25 11.3332V9.33317H12.5V11.3332H14.375V12.6665H12.5V14.6665H11.25V12.6665H9.375V11.3332H11.25Z" fill="white"/>
</svg>
