<svg width="89" height="71" viewBox="0 0 89 71" fill="none" xmlns="http://www.w3.org/2000/svg">
<g clip-path="url(#clip0_53_2310)">
<path d="M49.9757 6.43787C48.3551 10.6741 48.3209 15.2229 49.6935 19.5491C49.9886 20.4828 50.506 21.5279 51.126 22.2818C51.7461 23.0357 52.8365 23.721 53.8115 23.751C53.9397 24.9631 53.897 26.8221 54.0253 28.0343C52.6654 28.0728 51.2971 28.0471 50.0912 28.6768C49.9287 28.7624 49.7491 28.8738 49.7063 29.0537C49.6721 29.195 49.7277 29.3407 49.7876 29.4735C50.4931 31.1054 51.3569 32.6731 52.3576 34.138C53.294 35.5043 54.4058 36.8322 55.9111 37.5218C57.288 38.1557 58.8573 38.19 60.3711 38.1043C62.7871 37.963 65.1861 37.5218 67.4952 36.7979C68.359 36.5281 69.2313 36.2068 69.9412 35.6457C71.1214 34.7162 71.75 33.1528 71.6303 31.6494C71.5105 30.1502 70.6767 28.7367 69.4708 27.8372C68.56 27.1562 66.8025 26.8478 66.0413 25.9997C65.2246 25.0831 65.588 23.7039 65.3486 22.5002C65.1262 21.378 65.1946 19.8446 65.1091 18.701C64.9637 16.6964 64.9594 15.0859 64.9466 13.0727C64.9295 10.9996 64.5874 8.93075 63.9374 6.96471C63.5825 5.89389 63.1079 4.81021 62.2441 4.08633C61.4487 3.41814 60.4139 3.12687 59.3961 2.93413C58.3784 2.74138 57.3393 2.63001 56.3045 2.69854C54.7822 2.80563 53.2898 3.31962 52.024 4.172" fill="white"/>
<path d="M66.456 68.5883C66.3705 69.0552 66.2123 69.5221 65.913 69.8904C65.6136 70.2588 65.1561 70.5201 64.6857 70.5029C64.0272 70.4772 63.5055 69.9461 63.1163 69.4107C62.3637 68.3741 61.8292 67.1791 61.5598 65.9284L65.5238 64.9561L66.4603 68.5883H66.456Z" fill="#1F2A42"/>
<path d="M66.2507 68.5327C66.1224 69.1837 65.8573 69.8733 65.2202 70.1775C64.583 70.4816 63.9544 70.0789 63.5268 69.5906C62.6288 68.5627 62.0558 67.1963 61.765 65.8727L61.6154 66.1383C62.9367 65.8128 64.258 65.4915 65.5794 65.166L65.3143 65.0161C65.6264 66.2283 65.9386 67.4361 66.2507 68.6483C66.3191 68.9139 66.7339 68.8025 66.6612 68.5327C66.3491 67.3205 66.0369 66.1126 65.7248 64.9004C65.6948 64.7848 65.5708 64.7248 65.4596 64.7505C64.1383 65.076 62.817 65.3973 61.4956 65.7228C61.3802 65.7528 61.3203 65.877 61.346 65.9884C61.5256 66.8022 61.8078 67.5861 62.1884 68.3271C62.539 69.0124 62.9795 69.7491 63.5781 70.2503C64.134 70.7172 64.8482 70.8714 65.5067 70.5116C66.1652 70.1518 66.5159 69.385 66.6612 68.6526C66.7126 68.3828 66.302 68.2671 66.2507 68.537V68.5327Z" fill="#1F2A42"/>
<path d="M51.1302 29.3147C51.1302 29.3147 53.4222 31.4392 58.4809 31.5892C63.5439 31.7391 69.5904 27.8584 69.5904 27.8584C73.6314 29.3833 78.1086 32.7157 81.3499 36.4079C83.0561 38.3525 84.1166 40.6312 85.2455 42.2931C88.5296 47.1161 89.2694 58.9594 88.273 61.7265C87.2767 64.4935 88.4783 65.1917 81.2302 68.4855C73.9821 71.7794 64.5916 70.4687 64.5916 70.4687C64.5531 67.5603 62.5561 62.7844 62.5561 62.7844H56.6507C56.6507 62.7844 42.8601 68.3142 42.5265 68.3142H31.2417V45.1629C34.6113 37.0032 41.9364 30.4669 50.5101 28.4238L51.1302 29.3019V29.3147Z" fill="#7891EA"/>
<path d="M49.4712 7.02016C48.8896 9.64583 48.5432 12.3229 48.6459 15.0171C48.7271 17.2059 48.9537 19.5788 50.1896 21.4549C51.1132 22.8598 52.5457 23.7679 54.2006 24.042C56.3686 24.4061 58.6949 23.8707 60.4695 22.5728C62.073 21.3992 63.4799 19.6002 63.9631 17.6428C64.0315 17.3772 63.6167 17.2615 63.5526 17.5271C63.1506 19.1548 62.0645 20.6539 60.8201 21.7462C59.208 23.1596 57.0699 23.8578 54.9318 23.6993C53.2898 23.5794 51.7546 22.8598 50.7583 21.5234C49.5096 19.8487 49.2274 17.6856 49.1034 15.6553C48.9281 12.7812 49.2616 9.92853 49.8817 7.12725C49.9415 6.8574 49.5267 6.74603 49.4712 7.0116V7.02016Z" fill="#1F2A42"/>
<path d="M52.6312 13.6079C52.6312 13.9419 52.3618 14.2118 52.0282 14.2118C51.6947 14.2118 51.4253 13.9419 51.4253 13.6079C51.4253 13.2738 51.6947 13.0039 52.0282 13.0039C52.3618 13.0039 52.6312 13.2738 52.6312 13.6079Z" fill="#1F2A42"/>
<path d="M58.9512 13.6079C58.9512 13.9419 58.6818 14.2118 58.3483 14.2118C58.0148 14.2118 57.7454 13.9419 57.7454 13.6079C57.7454 13.2738 58.0148 13.0039 58.3483 13.0039C58.6818 13.0039 58.9512 13.2738 58.9512 13.6079Z" fill="#1F2A42"/>
<path d="M54.5384 13.835C54.5042 14.893 54.5341 15.9552 54.6239 17.0089C54.6453 17.2831 55.0729 17.2831 55.0516 17.0089C54.9618 15.9552 54.9361 14.893 54.966 13.835C54.9746 13.5609 54.547 13.5609 54.5384 13.835Z" fill="#1F2A42"/>
<path d="M55.3935 19.3477C55.8467 19.5747 56.3813 19.6347 56.8687 19.4805C57.3092 19.3391 57.6855 19.0436 57.9335 18.6495C58.0832 18.4182 57.7111 18.1998 57.5658 18.4354C57.151 19.0864 56.3 19.3263 55.6115 18.9793C55.3678 18.8551 55.1497 19.2235 55.3977 19.3477H55.3935Z" fill="#1F2A42"/>
<path d="M64.2409 13.3511C64.2751 10.7897 63.8646 8.94357 63.2147 7.10175C63.1163 6.82762 62.7699 6.73339 62.5134 6.86189C61.7821 7.22168 60.9697 7.41015 60.1529 7.40586C59.9733 7.40586 59.7766 7.38445 59.6612 7.24738C59.5372 7.09747 59.4516 6.91757 59.5286 6.74195C59.6056 6.56634 59.7167 6.42927 59.8792 6.17227C59.0069 6.86189 57.8865 7.16172 56.779 7.31163C56.407 7.36303 56.005 7.38873 55.6886 7.18313C55.3764 6.97753 55.2653 6.45069 55.5731 6.24081C54.4613 7.15743 53.0459 7.69713 51.6091 7.75281C51.0019 7.77851 50.3733 7.71426 49.8217 7.46155C49.0734 7.12317 48.4875 6.23652 48.5303 5.41413C48.5688 4.64314 48.9408 3.96209 49.2273 3.58944C50.8223 1.50348 55.5646 -0.920873 61.6624 0.792447C67.7602 2.50577 66.0198 12.4259 66.0198 12.4259" fill="#1F2A42"/>
<path d="M64.4547 13.3512C64.4718 11.8178 64.3264 10.2886 63.9544 8.80232C63.8732 8.47251 63.7791 8.14698 63.6765 7.82573C63.5824 7.5259 63.514 7.14468 63.3344 6.88768C63.1847 6.66495 62.8982 6.57072 62.6416 6.60927C62.492 6.63069 62.368 6.7035 62.2311 6.76347C62.0173 6.8577 61.7992 6.9348 61.5769 6.99905C61.115 7.13183 60.6276 7.20893 60.1486 7.19608C59.9305 7.18752 59.6312 7.07615 59.7338 6.79774C59.8023 6.61784 59.9562 6.44651 60.0588 6.28374C60.17 6.11241 59.9391 5.85541 59.768 5.99248C59.071 6.53217 58.25 6.82772 57.3905 6.99905C56.9885 7.08043 56.5224 7.18752 56.1119 7.11898C55.9152 7.08472 55.7356 7.00333 55.6501 6.81487C55.5774 6.66067 55.5859 6.50647 55.7271 6.39511L55.4234 6.09099C54.7051 6.67352 53.8669 7.09757 52.9732 7.33315C52.0795 7.56873 51.0404 7.67153 50.1466 7.36313C49.3727 7.09757 48.7398 6.33086 48.7398 5.49133C48.7398 4.74603 49.1161 4.01787 49.5993 3.46961C50.3434 2.6258 51.3226 2.00472 52.3361 1.53356C53.7044 0.899629 55.2054 0.548399 56.7106 0.454166C58.451 0.347084 60.3068 0.531265 61.9574 1.10951C62.9324 1.45218 63.7834 2.09467 64.3949 2.92991C65.5751 4.549 65.9428 6.64354 66.0198 8.60529C66.054 9.41912 66.0326 10.2329 65.9685 11.0468C65.9343 11.4965 65.883 11.9163 65.8231 12.3103C65.8231 12.3318 65.8146 12.3489 65.8146 12.3703C65.7675 12.6402 66.178 12.7558 66.2251 12.486C66.426 11.3338 66.4816 10.143 66.456 8.97794C66.4132 6.8834 66.0711 4.62182 64.861 2.8571C64.2324 1.94475 63.3814 1.22944 62.3551 0.805397C61.5427 0.471299 60.6532 0.299967 59.7894 0.167185C58.8529 0.0258359 57.9079 -0.0341303 56.9629 0.00870275C55.3508 0.0815189 53.7515 0.43275 52.2719 1.09238C51.1729 1.58067 50.0996 2.25744 49.2957 3.1655C48.7954 3.73089 48.4362 4.41194 48.3336 5.1658C48.2266 5.98391 48.5816 6.80202 49.2144 7.32887C49.9414 7.93281 50.9677 8.02276 51.8742 7.94994C52.7808 7.87713 53.7258 7.60728 54.5554 7.17038C54.9702 6.95193 55.355 6.68637 55.7228 6.39082C55.9366 6.21521 55.633 5.91966 55.4192 6.08671C55.0856 6.35227 55.1241 6.84485 55.3636 7.16182C55.68 7.58158 56.2616 7.58586 56.732 7.5259C57.8822 7.38455 59.0496 7.07187 59.9819 6.35227L59.6911 6.06101C59.5286 6.31372 59.2635 6.6007 59.2848 6.91767C59.3062 7.23463 59.5542 7.51733 59.8621 7.59015C60.2213 7.67581 60.6447 7.60728 61.0039 7.55588C61.4229 7.49163 61.8334 7.38026 62.2268 7.22178C62.3851 7.15753 62.5604 7.03332 62.7314 7.02047C62.9538 7.00333 63.0137 7.16182 63.0735 7.34171C63.189 7.67153 63.2959 8.00563 63.39 8.34401C63.5909 9.0379 63.7449 9.74893 63.8518 10.4642C63.9929 11.4194 64.0399 12.3874 64.0271 13.3512C64.0271 13.6253 64.4504 13.6253 64.4547 13.3512Z" fill="#1F2A42"/>
<path d="M53.6018 23.9693C53.6874 25.5584 53.7301 27.1475 53.8157 28.7366C53.8285 29.0107 54.2561 29.0107 54.2433 28.7366C54.1577 27.1475 54.115 25.5584 54.0295 23.9693C54.0166 23.6951 53.589 23.6951 53.6018 23.9693Z" fill="#1F2A42"/>
<path d="M41.7698 68.5243L48.5817 67.522L48.8639 66.2456L41.7698 67.1708" fill="#DDE5EB"/>
<path d="M41.7698 68.5243L48.5817 67.522L48.8639 66.2456L41.7698 67.1708" stroke="#1F2A42" stroke-miterlimit="10" stroke-linecap="round"/>
<path d="M55.3595 59.6279H57.241C57.4559 59.6279 57.6301 59.4534 57.6301 59.2381V56.1413C57.6301 55.9261 57.4559 55.7515 57.241 55.7515H55.3595C55.1446 55.7515 54.9703 55.9261 54.9703 56.1413V59.2381C54.9703 59.4534 55.1446 59.6279 55.3595 59.6279Z" fill="#DDE5EB" stroke="#1F2A42" stroke-miterlimit="10"/>
<path d="M53.5806 65.0337H59.0242C59.2391 65.0337 59.4133 64.8592 59.4133 64.6439V57.1224C59.4133 56.9072 59.2391 56.7327 59.0242 56.7327H53.5806C53.3657 56.7327 53.1915 56.9072 53.1915 57.1224V64.6439C53.1915 64.8592 53.3657 65.0337 53.5806 65.0337Z" fill="#DDE5EB" stroke="#1F2A42" stroke-miterlimit="10"/>
<path d="M56.3002 56.2872C56.2317 56.27 56.1719 56.2229 56.1377 56.1458C54.8762 53.4473 50.6513 39.0512 49.5652 28.9126" stroke="#1F2A42" stroke-linecap="round" stroke-linejoin="round"/>
<path d="M70.0993 28.3257C66.982 33.3371 59.3277 47.6091 56.7791 55.5975" stroke="#1F2A42" stroke-linecap="round" stroke-linejoin="round"/>
<path d="M76.3255 57.2975C71.8098 56.8906 67.2514 57.0363 62.7657 57.7259C62.2098 57.8115 61.6496 57.9058 61.098 58.0086C60.7431 58.0728 60.1273 58.1242 60.2342 58.6468C60.2727 58.831 60.4181 59.0066 60.5122 59.1693C60.6362 59.3835 60.7559 59.5977 60.8756 59.8118C61.5983 61.1311 62.2397 62.4975 62.7828 63.8981C63.5953 66.0055 64.1982 68.2157 64.3821 70.473C64.3907 70.5629 64.442 70.6614 64.5403 70.6786C65.4982 70.8627 66.486 70.927 67.4567 70.9655C69.8855 71.0726 72.3272 70.9013 74.7262 70.4944C78.1001 69.9204 81.3884 68.8453 84.4374 67.2948C85.4252 66.7936 86.2547 66.1854 86.9218 65.2945C87.5889 64.4035 88.0037 63.4355 88.3158 62.4118C89.0599 59.9446 89.1112 57.2804 88.9017 54.7276C88.675 51.9691 88.1277 49.2192 87.2725 46.585C86.3146 43.6338 84.8821 40.8154 83.0904 38.2882C81.2687 35.7183 79.0109 33.5638 76.4965 31.6834C74.1489 29.9272 71.5746 28.5437 68.9277 27.2973C68.1879 26.9503 67.3925 26.6548 66.6827 26.2479C66.3192 26.038 66.1097 25.7682 66.0156 25.357C65.9215 24.9458 65.8745 24.5046 65.8232 24.0762C65.6051 22.2644 65.5495 20.4354 65.4554 18.6108C65.4127 17.7241 65.3571 16.8418 65.2801 15.9551C65.2544 15.681 64.8268 15.681 64.8525 15.9551C65.015 17.7627 65.062 19.5745 65.1689 21.3821C65.2202 22.2644 65.2844 23.1468 65.3913 24.0248C65.4383 24.4232 65.4939 24.8258 65.5581 25.2199C65.6179 25.5754 65.7077 25.9266 65.9472 26.205C66.1866 26.4835 66.4945 26.6419 66.8067 26.7876C67.1873 26.9675 67.5721 27.1345 67.957 27.3101C68.6754 27.64 69.3895 27.9783 70.0993 28.3296C71.3822 28.9635 72.6437 29.6403 73.8581 30.3941C76.381 31.9618 78.7928 33.8593 80.7812 36.0695C82.8937 38.4125 84.5785 41.1495 85.8442 44.0364C86.9731 46.6107 87.7129 49.3563 88.1576 52.1276C88.6024 54.8989 88.7563 57.5117 88.3672 60.1631C88.0593 62.2662 87.3708 64.5192 85.7202 65.9669C85.2969 66.3396 84.8179 66.6137 84.3176 66.8707C83.4795 67.299 82.6243 67.6931 81.7519 68.0486C80.1826 68.6868 78.5619 69.2094 76.9113 69.6035C74.2985 70.2331 71.6174 70.5544 68.9277 70.5586C67.5721 70.5586 66.1524 70.4987 64.8397 70.2888C64.7798 70.2802 64.7156 70.2674 64.6558 70.2588L64.814 70.4644C64.5232 66.935 63.2874 63.5169 61.6753 60.3858C61.4315 59.9146 61.1792 59.4478 60.9141 58.9894C60.8628 58.8995 60.6404 58.6211 60.6789 58.5354C60.726 58.4326 61.3033 58.3941 61.423 58.3726C61.7009 58.3212 61.9789 58.2741 62.2568 58.227C64.4462 57.8629 66.6613 57.6359 68.8764 57.5374C71.3608 57.4303 73.8496 57.4903 76.3255 57.713C76.5991 57.7387 76.5991 57.3104 76.3255 57.2847V57.2975Z" fill="#1F2A42"/>
<path d="M61.1621 59.7179L58.7717 59.6279L60.6062 63.7099L62.8042 63.4101L61.1621 59.7179Z" fill="white"/>
<path d="M60.0887 59.6881C57.1895 59.3497 52.0495 59.1527 49.5308 59.7952C46.8112 60.4848 44.0702 61.8554 42.6847 64.3055C42.5222 64.5925 42.3939 65.0465 42.6248 65.2778C42.7274 65.3806 42.9241 65.5177 43.0695 65.5434C43.6682 65.6462 44.2498 65.4063 44.8014 65.1622C44.4978 65.4491 44.1856 65.7575 44.0573 66.1559C43.929 66.5542 44.0573 67.0682 44.4422 67.231C44.6474 67.3167 44.8784 67.291 45.0964 67.2524C45.6395 67.1539 46.1698 66.9826 46.6701 66.747C46.2382 67.0168 46.1441 67.3938 46.2809 67.7279C46.4178 68.0619 46.7599 68.1005 47.1191 68.1176C47.4783 68.1348 47.8289 68.0148 48.1625 67.8821C49.6506 67.2995 51.0318 66.49 52.4087 65.6804C51.5278 66.3315 50.8137 67.2139 50.3561 68.2119C50.2792 68.3832 50.2065 68.5759 50.2706 68.7516C50.3433 68.9486 50.5571 69.0471 50.7624 69.0942C51.4808 69.257 52.2291 68.9614 52.8449 68.5545C53.4606 68.1476 53.9994 67.6293 54.6323 67.2567C54.8333 67.1368 55.0471 67.034 55.278 66.9954C55.5731 66.9483 55.8724 67.0083 56.1632 67.0639C58.5365 67.5394 61.4998 67.4109 63.6294 65.9032" fill="white"/>
<path d="M60.0888 59.4738C58.652 59.3067 57.2023 59.2168 55.757 59.1782C54.2304 59.1354 52.691 59.1439 51.1687 59.3067C49.7447 59.4566 48.3763 59.8378 47.0635 60.4032C45.6096 61.0286 44.2242 61.9195 43.2193 63.1617C42.9499 63.4958 42.689 63.847 42.4923 64.2282C42.3341 64.5323 42.1972 64.9564 42.3726 65.2819C42.5778 65.6631 43.0482 65.7959 43.4502 65.7788C43.9676 65.7574 44.4508 65.5518 44.9169 65.3462L44.656 65.0078C44.1001 65.5432 43.4202 66.4127 44.036 67.1709C44.3311 67.5349 44.7843 67.5221 45.2077 67.445C45.755 67.3422 46.281 67.1623 46.7856 66.9267L46.5718 66.5583C46.1099 66.871 45.8106 67.475 46.1955 67.9804C46.5974 68.5115 47.5168 68.3488 48.0471 68.1603C49.625 67.5906 51.0874 66.7125 52.5285 65.8687L52.3147 65.5004C51.8144 65.8773 51.3611 66.3099 50.9762 66.8068C50.6213 67.2651 50.1937 67.8519 50.0697 68.4301C49.9328 69.0555 50.5315 69.3211 51.0489 69.3553C51.6861 69.4025 52.3189 69.1497 52.8535 68.8199C53.4179 68.473 53.9011 68.0147 54.4485 67.642C54.7307 67.4493 55.0471 67.2351 55.3978 67.2008C55.7484 67.1666 56.0948 67.2737 56.4326 67.3336C57.6086 67.5392 58.8187 67.5949 60.0075 67.445C61.3417 67.2822 62.6459 66.8667 63.7577 66.0915C63.9801 65.933 63.7663 65.5646 63.5439 65.7231C61.7351 66.9867 59.4259 67.2608 57.2793 67.0252C56.732 66.9653 56.1932 66.8068 55.6458 66.7725C55.0514 66.734 54.5511 67.0466 54.085 67.3807C53.1699 68.0404 52.0923 69.1883 50.8394 68.8927C50.7239 68.867 50.5657 68.8242 50.5059 68.7086C50.4118 68.5287 50.5914 68.2502 50.6726 68.0875C50.818 67.8048 50.9805 67.5307 51.1644 67.2694C51.545 66.734 52.0111 66.2585 52.537 65.8644C52.7508 65.7017 52.567 65.3505 52.3232 65.4961C51.2029 66.1514 50.0825 66.8111 48.9023 67.3465C48.3378 67.6035 47.7007 67.9376 47.0678 67.8947C46.8155 67.8776 46.5376 67.8348 46.4734 67.5478C46.4136 67.2779 46.5931 67.0681 46.8027 66.9267C47.0336 66.7725 46.8369 66.4427 46.5889 66.5583C46.234 66.7211 45.8705 66.8539 45.4942 66.9481C45.1777 67.0295 44.656 67.2051 44.3995 66.9224C43.9077 66.3784 44.6047 65.6717 44.9768 65.3162C45.1649 65.1363 44.9254 64.8879 44.7159 64.9778C44.3097 65.1577 43.8735 65.3462 43.4202 65.3547C42.9926 65.3633 42.642 65.1491 42.7788 64.6908C42.8772 64.3567 43.1081 64.0483 43.309 63.7699C43.5229 63.4701 43.7623 63.1917 44.0189 62.9304C45.0537 61.8767 46.3708 61.1228 47.7434 60.596C48.9493 60.1291 50.1851 59.8293 51.468 59.7093C52.862 59.5808 54.2646 59.5723 55.6586 59.6065C57.1467 59.6451 58.6349 59.735 60.1101 59.9064C60.3838 59.9364 60.3795 59.508 60.1101 59.478L60.0888 59.4738Z" fill="#1F2A42"/>
<path d="M45.6054 64.8921C46.5419 64.1168 47.5853 63.4743 48.6971 62.9775C48.9494 62.8661 48.7313 62.4977 48.4833 62.6091C47.3373 63.1231 46.2725 63.7913 45.3061 64.588C45.0923 64.7636 45.3959 65.0634 45.6097 64.8921H45.6054Z" fill="#1F2A42"/>
<path d="M47.4912 66.4043C48.4276 65.629 49.471 64.9865 50.5828 64.4897C50.8351 64.3783 50.617 64.01 50.369 64.1213C49.223 64.6353 48.1582 65.3035 47.1918 66.1002C46.978 66.2758 47.2816 66.5756 47.4954 66.4043H47.4912Z" fill="#1F2A42"/>
<path d="M41.5045 43.7626C40.9743 47.7589 40.6279 51.7809 40.4654 55.8115C40.4184 56.9552 40.3884 58.0988 40.3713 59.2424C40.3713 59.5166 40.7947 59.5166 40.799 59.2424C40.8545 55.2119 41.0983 51.1813 41.5216 47.1721C41.6414 46.0327 41.7782 44.8977 41.9279 43.7626C41.9621 43.4885 41.5345 43.4927 41.5002 43.7626H41.5045Z" fill="#1F2A42"/>
<path d="M51.0232 29.4992C53.2126 30.8955 55.7697 31.6023 58.3611 31.6622C60.7301 31.7136 63.0521 31.1996 65.2286 30.2787C66.6612 29.6705 68.021 28.9038 69.3209 28.0471C69.5519 27.8972 69.3338 27.5246 69.1071 27.6788C66.999 29.0708 64.7112 30.2359 62.2439 30.827C59.9347 31.3752 57.4888 31.3924 55.1839 30.8227C53.7856 30.4758 52.4557 29.9104 51.2413 29.1351C51.0104 28.9852 50.7923 29.3578 51.0275 29.5034L51.0232 29.4992Z" fill="#1F2A42"/>
<path d="M48.8937 30.0129C52.3873 32.7199 56.9799 33.6666 61.3074 33.0283C62.6715 32.827 64.01 32.4715 65.3142 32.0132C65.5708 31.9232 65.4596 31.5078 65.1987 31.602C63.0692 32.3516 60.837 32.8185 58.5707 32.8013C56.4668 32.7842 54.3586 32.3858 52.413 31.5806C51.267 31.1051 50.1765 30.4755 49.193 29.7131C48.9792 29.546 48.6713 29.8458 48.8894 30.0172L48.8937 30.0129Z" fill="#1F2A42"/>
<path d="M64.241 13.3512C64.5916 12.7901 64.6558 12.6102 64.9508 12.3189C65.2459 12.032 65.7718 11.9206 66.1781 11.9806C66.7169 12.0619 67.0675 12.6273 67.1274 13.1713C67.2086 13.9038 66.8922 14.6448 66.4047 15.1973C65.9172 15.7499 65.2673 16.1396 64.6002 16.4523" fill="white"/>
<path d="M64.4292 13.4584C64.7114 13.0086 64.9466 12.4304 65.4897 12.2547C65.7719 12.1605 66.1397 12.1262 66.4048 12.289C66.6699 12.4518 66.8196 12.7345 66.888 13.0215C67.0633 13.7239 66.7384 14.4949 66.2851 15.026C65.8019 15.5872 65.1604 15.9641 64.5019 16.2768C64.2539 16.3924 64.472 16.7651 64.7157 16.6451C65.9302 16.0712 67.1531 15.1503 67.337 13.7196C67.4097 13.1371 67.2771 12.4903 66.8282 12.0791C66.3792 11.6679 65.7292 11.6851 65.2075 11.9121C64.6388 12.1605 64.3736 12.7516 64.0615 13.2485C63.9161 13.4841 64.2838 13.6982 64.4292 13.4626V13.4584Z" fill="#1F2A42"/>
<path d="M31.447 45.2315C32.9522 41.5992 35.2443 38.3011 38.0751 35.5812C40.9059 32.8613 44.2798 30.7154 47.9744 29.409C49.856 28.7451 51.8102 28.2867 53.8114 28.2482C54.0851 28.2439 54.0851 27.8156 53.8114 27.8199C50.0612 27.8884 46.3367 29.3147 43.1338 31.1994C39.6872 33.2297 36.6811 35.9924 34.3249 39.2306C32.9993 41.0553 31.896 43.0341 31.028 45.1158C30.9211 45.3685 31.3358 45.4799 31.4385 45.2315H31.447Z" fill="#1F2A42"/>
<path d="M74.1103 43.7537C74.9869 47.2489 75.5172 50.8254 75.7011 54.4234C75.7524 55.4428 75.778 56.4623 75.7737 57.4817C75.7737 57.7558 76.2014 57.7558 76.2014 57.4817C76.2099 53.8452 75.8721 50.2086 75.1879 46.6364C74.9955 45.6298 74.7731 44.6318 74.5251 43.6381C74.4567 43.3725 74.0462 43.4839 74.1146 43.7537H74.1103Z" fill="#1F2A42"/>
<path d="M41.2523 65.9502H6.22192V68.1861H41.2523V65.9502Z" fill="white"/>
<path d="M5.30676 66.768L0.248044 45.1459C0.0598921 44.3492 0.667109 43.5825 1.48386 43.5825H33.8759C35.0518 43.5825 36.0738 44.3921 36.339 45.54L41.3036 66.768" fill="#DDE5EB"/>
<path d="M5.30676 66.768L0.248044 45.1459C0.0598921 44.3492 0.667109 43.5825 1.48386 43.5825H33.8759C35.0518 43.5825 36.0738 44.3921 36.3389 45.54L41.3036 66.768" stroke="#1F2A42" stroke-linecap="round" stroke-linejoin="round"/>
<path d="M40.9102 67.1621H5.61467C5.4281 67.1621 5.27686 67.3136 5.27686 67.5005V68.1601C5.27686 68.347 5.4281 68.4985 5.61467 68.4985H40.9102C41.0968 68.4985 41.248 68.347 41.248 68.1601V67.5005C41.248 67.3136 41.0968 67.1621 40.9102 67.1621Z" fill="#DDE5EB" stroke="#1F2A42" stroke-linecap="round" stroke-linejoin="round"/>
<path d="M16.6472 54.6507C17.3185 54.1667 18.4517 54.3037 19.3626 55.0276C20.4017 55.8586 20.7609 57.1436 20.1579 57.9017C19.555 58.6598 18.2251 58.5999 17.186 57.7689C16.5788 57.2849 16.2067 56.6467 16.1169 56.0513" fill="white"/>
<path d="M16.6472 54.6507C17.3185 54.1667 18.4517 54.3037 19.3626 55.0276C20.4017 55.8586 20.7609 57.1436 20.1579 57.9017C19.555 58.6598 18.2251 58.5999 17.186 57.7689C16.5788 57.2849 16.2067 56.6467 16.1169 56.0513" stroke="#1F2A42" stroke-miterlimit="10" stroke-linecap="round"/>
</g>
<defs>
<clipPath id="clip0_53_2310">
<rect width="89" height="71" fill="white"/>
</clipPath>
</defs>
</svg>
