<svg width="15" height="15" viewBox="0 0 15 15" fill="none" xmlns="http://www.w3.org/2000/svg">
<path d="M10.625 1.25C10.9702 1.25 11.25 1.52983 11.25 1.875V4.375H13.125C13.4702 4.375 13.75 4.65482 13.75 5V11.25C13.75 11.5952 13.4702 11.875 13.125 11.875H11.25V13.125C11.25 13.4702 10.9702 13.75 10.625 13.75H4.375C4.02982 13.75 3.75 13.4702 3.75 13.125V11.875H1.875C1.52983 11.875 1.25 11.5952 1.25 11.25V5C1.25 4.65482 1.52983 4.375 1.875 4.375H3.75V1.875C3.75 1.52983 4.02982 1.25 4.375 1.25H10.625ZM10 10.625H5V12.5H10V10.625ZM12.5 5.625H2.5V10.625H3.75V10C3.75 9.65481 4.02982 9.375 4.375 9.375H10.625C10.9702 9.375 11.25 9.65481 11.25 10V10.625H12.5V5.625ZM5 6.25V7.5H3.125V6.25H5ZM10 2.5H5V4.375H10V2.5Z" fill="#21293B"/>
</svg>
