<svg width="13" height="13" viewBox="0 0 13 13" fill="none" xmlns="http://www.w3.org/2000/svg">
<path d="M5.89364 7.98688C5.91502 6.64021 6.28908 6.23082 6.94103 5.81067C7.3899 5.53056 7.73191 5.17504 7.73191 4.64715C7.73191 4.06539 7.27234 3.68832 6.7059 3.67755C6.18221 3.68832 5.69058 4.02229 5.65851 4.71179H4.33325C4.376 3.31126 5.42339 2.58944 6.7059 2.60022C8.12735 2.58944 9.08923 3.38667 9.09992 4.6256C9.08923 5.48747 8.67242 6.04768 7.98841 6.45706C7.3899 6.82336 7.1334 7.18965 7.1334 7.98688V8.07306H5.89364V7.98688ZM5.72264 9.58133C5.72264 9.13962 6.09671 8.77333 6.5349 8.76255C6.97309 8.77333 7.34715 9.13962 7.34715 9.58133C7.34715 10.0338 6.97309 10.4001 6.5349 10.4001C6.09671 10.4001 5.72264 10.0338 5.72264 9.58133Z" fill="white"/>
</svg>
