<svg width="48" height="48" viewBox="0 0 48 48" fill="none" xmlns="http://www.w3.org/2000/svg">
<rect width="48" height="48" rx="24" fill="white" fill-opacity="0.1"/>
<g clip-path="url(#clip0_0_1)">
<path d="M26.9555 16C24.5909 16 22.5033 17.1978 21.2246 19.0364C22.7385 19.7992 23.7894 21.4099 23.7894 23.263C23.7894 24.2537 23.4924 25.1806 22.9736 25.9426C24.6192 26.7767 25.6977 28.5018 25.7185 30.4117C26.1197 30.4831 26.5275 30.5253 26.9562 30.5253C30.8413 30.5253 34.0007 27.2748 34.0007 23.2623C34.0007 19.2498 30.8406 16 26.9555 16ZM30.3017 24.2468C30.1983 24.632 29.8596 24.8814 29.4927 24.8814C29.4168 24.8814 29.3409 24.8737 29.2642 24.8461L26.6719 24.0971C26.3057 23.9974 26.0497 23.6551 26.0497 23.263V19.6135C26.0497 19.1362 26.43 18.7441 26.893 18.7441C27.3559 18.7441 27.7362 19.1362 27.7362 19.6135V22.6L29.7204 23.1771C30.17 23.3052 30.4327 23.7833 30.301 24.246L30.3017 24.2468Z" fill="white"/>
<path d="M24.4391 30.4692V32.3224C24.4391 32.7007 24.1422 33 23.7827 33H14.6564C14.2903 33 14 32.7007 14 32.3224V30.4692C14 28.8509 15.0025 27.4827 16.3988 26.9624C17.1728 27.597 18.1545 27.9745 19.2196 27.9745C20.2846 27.9745 21.2656 27.597 22.0403 26.9624C23.4299 27.4827 24.4391 28.8509 24.4391 30.4692Z" fill="white"/>
<path d="M19.2173 26.6576C21.0348 26.6576 22.5085 25.1382 22.5085 23.2643C22.5085 21.3905 21.0348 19.8711 19.2173 19.8711C17.3998 19.8711 15.9261 21.3905 15.9261 23.2643C15.9261 25.1382 17.3998 26.6576 19.2173 26.6576Z" fill="white"/>
</g>
<defs>
<clipPath id="clip0_0_1">
<rect width="20" height="17" fill="white" transform="translate(14 16)"/>
</clipPath>
</defs>
</svg>
