<svg width="90" height="112" viewBox="0 0 90 112" fill="none" xmlns="http://www.w3.org/2000/svg">
<g clip-path="url(#clip0_53_2179)">
<path d="M23.2607 88.6223C24.2997 91.4348 25.3429 94.2969 25.6617 97.2791C25.9432 99.9052 24.8379 105.559 24.8379 105.559L66.164 106.503C66.164 106.503 68.9458 86.3235 69.0907 83.5359C69.3432 87.5578 69.9062 94.3093 69.9062 94.3093C69.9062 94.3093 75.6355 105.667 81.5469 109.125C87.9964 107.22 87.4624 105.866 88.013 102.622C90.414 88.5354 90.6706 75.9354 85.7238 62.5277C83.8526 57.4537 81.2695 52.4667 77.134 48.9833C72.2865 44.8951 64.0031 42.1987 57.835 40.7407C49.8952 40.0614 42.125 40.9851 34.5578 43.843C31.333 45.0484 28.1123 46.2496 24.8876 47.4549C23.894 47.8277 22.884 48.2046 22.0685 48.8259C21.1246 49.5466 20.512 50.5407 19.92 51.5099C18.794 53.3614 17.668 55.2087 16.5379 57.0602" fill="#7891EA"/>
<path d="M22.946 88.7094C24.2128 92.139 25.5706 95.7053 25.3429 99.4248C25.2187 101.45 24.9124 103.48 24.5233 105.472C24.4819 105.683 24.6143 105.882 24.8379 105.886C26.2039 105.919 27.57 105.948 28.9403 105.982L38.7926 106.205C42.7832 106.296 46.778 106.388 50.7686 106.479C54.2045 106.557 57.6404 106.636 61.0763 106.715L64.475 106.793C65.0048 106.806 65.5595 106.868 66.0894 106.831C66.1143 106.831 66.1391 106.831 66.1598 106.831C66.2881 106.831 66.4578 106.727 66.4744 106.59C66.7973 104.25 67.1161 101.91 67.4265 99.5698C67.9647 95.5603 68.5028 91.5508 68.9872 87.5372C69.1486 86.2118 69.339 84.8739 69.4135 83.5402H68.7553C68.9127 86.0337 69.1072 88.5272 69.3018 91.0165C69.3722 91.8988 69.4425 92.781 69.5129 93.6633C69.5377 93.9449 69.5212 94.2556 69.633 94.5165C70.0469 95.5065 70.6761 96.455 71.2143 97.3745C72.3154 99.255 73.4994 101.09 74.7909 102.842C76.1694 104.71 77.6763 106.528 79.4563 108.032C79.8579 108.367 80.2718 108.69 80.7024 108.985C80.8969 109.117 81.1039 109.279 81.3192 109.378C81.6214 109.519 81.9401 109.345 82.2423 109.25C83.4097 108.885 84.5936 108.479 85.6617 107.875C86.9242 107.162 87.7149 106.16 88.0006 104.735C88.1579 103.935 88.2489 103.119 88.3855 102.316C88.6712 100.626 88.9237 98.9319 89.1472 97.2337C90.0041 90.6644 90.3146 84.0041 89.5736 77.41C88.8492 70.9319 87.1685 64.4745 84.428 58.5514C83.1613 55.8177 81.6048 53.1999 79.6012 50.9425C77.7177 48.8177 75.445 47.1567 72.9571 45.8106C70.4029 44.4272 67.6915 43.342 64.9427 42.4183C63.5725 41.9585 62.1899 41.5402 60.7948 41.155C60.1407 40.9769 59.4825 40.8029 58.8202 40.6414C58.0958 40.4633 57.4044 40.368 56.6593 40.3224C49.8496 39.8709 42.9778 40.6579 36.491 42.8035C33.0012 43.9591 29.5819 45.3425 26.1377 46.6307C24.6806 47.1733 23.0661 47.6248 21.8201 48.594C20.574 49.5633 19.8372 50.9881 19.0424 52.297C18.1109 53.8295 17.1754 55.3621 16.244 56.8946C16.0246 57.255 16.5917 57.5863 16.8111 57.226C17.726 55.7224 18.6408 54.2189 19.5557 52.7153C20.3795 51.3609 21.1453 49.8201 22.499 48.9088C23.8526 47.9976 25.4961 47.5668 26.9905 47.0076C28.667 46.3822 30.3436 45.7567 32.0201 45.1313C35.2077 43.9425 38.3745 42.7869 41.7028 42.0496C45.031 41.3124 48.3138 40.9396 51.6586 40.865C53.3269 40.8278 54.9952 40.865 56.6593 40.9769C58.0461 41.068 59.3584 41.4408 60.6913 41.8094C63.4152 42.5591 66.1101 43.4455 68.7222 44.5307C71.3343 45.6159 73.7271 46.8295 75.9294 48.4573C78.2889 50.2011 80.2097 52.4751 81.7538 54.9562C83.2979 57.4372 84.5439 60.2579 85.5582 63.0745C86.6759 66.1769 87.5576 69.3621 88.1786 72.597C89.3791 78.8556 89.5612 85.255 89.0727 91.6005C88.8161 94.9059 88.3897 98.1946 87.8557 101.467C87.7066 102.39 87.5742 103.314 87.4169 104.238C87.3175 104.822 87.1892 105.41 86.8787 105.924C85.9183 107.522 83.6167 108.135 81.9732 108.645C81.8904 108.67 81.6586 108.79 81.5965 108.782C81.5179 108.773 81.3771 108.649 81.3109 108.604C81.0832 108.459 80.8638 108.305 80.6444 108.144C80.2097 107.825 79.7958 107.477 79.3942 107.112C78.5704 106.367 77.8129 105.555 77.0885 104.71C74.5633 101.753 72.4603 98.4142 70.614 94.997C70.4899 94.765 70.3657 94.3508 70.1752 94.1644C70.2042 94.1934 70.2042 94.3923 70.1959 94.1437C70.1877 93.8952 70.1545 93.6508 70.1339 93.4065C69.96 91.2775 69.7944 89.1485 69.6371 87.0195C69.5502 85.8556 69.4674 84.6958 69.397 83.5319C69.3722 83.1094 68.7636 83.1094 68.7388 83.5319C68.5773 86.51 68.0764 89.4964 67.6956 92.4538C67.203 96.2686 66.6897 100.079 66.1722 103.89C66.0563 104.731 65.9445 105.572 65.8286 106.412L66.1432 106.172C64.7771 106.139 63.4111 106.11 62.0408 106.077L52.1885 105.853C48.1979 105.762 44.2031 105.671 40.2125 105.58C36.7766 105.501 33.3407 105.422 29.9048 105.344L26.5061 105.265L25.4547 105.24C25.2849 105.24 25.0573 105.19 24.8917 105.228C24.871 105.232 24.842 105.228 24.8213 105.228L25.1359 105.642C25.4174 104.209 25.6368 102.759 25.8065 101.309C25.9307 100.245 26.0342 99.1721 26.0177 98.0994C26.0011 96.7284 25.7113 95.3449 25.3719 94.0236C24.8917 92.1556 24.2252 90.3414 23.5587 88.5355C23.4138 88.142 22.7805 88.3118 22.9253 88.7094H22.946Z" fill="#231815"/>
<path d="M43.0275 53.6679C43.7726 51.1081 44.5136 48.5483 45.2587 45.9927C45.4492 45.3383 45.6479 44.6673 46.0535 44.1164C46.4758 43.5448 47.0843 43.1513 47.6804 42.7702C50.454 40.9975 53.2234 39.2205 55.997 37.4478L59.7682 40.5418C56.8829 42.9856 54.0886 45.5412 51.3978 48.1963C50.3878 46.8294 49.3818 45.4625 48.3717 44.0957C47.8046 44.3815 47.2996 44.7915 46.898 45.2844" fill="#7891EA"/>
<path d="M43.3462 53.7549C43.8595 51.9821 44.377 50.2135 44.8903 48.4407C45.1511 47.5419 45.3995 46.6431 45.6727 45.7484C45.917 44.9448 46.244 44.249 46.9063 43.7022C47.5687 43.1555 48.3386 42.733 49.0589 42.2733L51.3978 40.7738C52.9875 39.7591 54.5729 38.7401 56.1626 37.7253L55.7652 37.6756C57.0236 38.707 58.2779 39.7383 59.5364 40.7697V40.3058C56.6511 42.7496 53.8609 45.3052 51.166 47.9602L51.6793 48.0265C50.6693 46.6596 49.6633 45.2928 48.6533 43.9259C48.5456 43.7768 48.3759 43.7188 48.2062 43.8099C47.6142 44.1247 47.1009 44.5348 46.6662 45.0484C46.393 45.3673 46.8566 45.8354 47.1299 45.5123C47.5314 45.0401 47.9909 44.6673 48.5373 44.3774L48.0903 44.2614C49.1003 45.6283 50.1063 46.9951 51.1163 48.362C51.2405 48.5318 51.4682 48.5898 51.6297 48.4283C54.3204 45.7733 57.1147 43.2176 60 40.7738C60.1242 40.6662 60.1283 40.4135 60 40.3099C58.7416 39.2786 57.4873 38.2472 56.2288 37.2159C56.117 37.1247 55.9597 37.0792 55.8314 37.1662C54.1548 38.2389 52.4824 39.3117 50.8059 40.3845L48.38 41.9378C47.6846 42.3851 46.9394 42.8034 46.3185 43.3543C45.0725 44.4644 44.8158 46.3531 44.3687 47.8815C43.814 49.7827 43.2634 51.688 42.7087 53.5892C42.5887 53.9951 43.222 54.1691 43.3421 53.7632L43.3462 53.7549Z" fill="#231815"/>
<path d="M68.7015 60.1711C68.7015 60.1711 68.9623 83.2421 69.902 94.3096L68.7015 60.1711Z" fill="#FFCFE9"/>
<path d="M68.3745 60.1711C68.4076 63.0001 68.4615 65.8291 68.5194 68.6581C68.6395 74.3285 68.7926 79.9989 69.0493 85.6611C69.1776 88.5439 69.3308 91.4309 69.575 94.3096C69.6123 94.7279 70.2664 94.7321 70.2332 94.3096C69.7737 88.8587 69.5874 83.3829 69.4177 77.9155C69.2646 72.9906 69.1528 68.0616 69.0741 63.1326C69.0576 62.1468 69.0452 61.1569 69.0327 60.1711C69.0286 59.7486 68.3704 59.7486 68.3745 60.1711Z" fill="#231815"/>
<path d="M56.444 43.1183C55.1856 45.4544 53.9685 47.8153 52.768 50.1845C50.2428 55.1591 47.8046 60.1833 45.5568 65.2904C44.3149 68.1153 43.1268 70.965 42.096 73.8768C41.9553 74.2745 42.5886 74.4484 42.7294 74.0508C44.6212 68.7159 46.9891 63.5467 49.4273 58.4437C51.4475 54.2147 53.5545 50.0271 55.7279 45.8768C56.1542 45.065 56.5806 44.2532 57.0112 43.4496C57.2099 43.0768 56.6469 42.7455 56.444 43.1183Z" fill="#231815"/>
<path d="M35.2574 44.7876C35.5099 52.3136 36.7352 59.8024 38.921 67.0053C39.5378 69.0473 40.2374 71.0645 41.0032 73.0526C41.1522 73.442 41.7897 73.2722 41.6366 72.8787C38.9499 65.9077 37.1616 58.597 36.3627 51.1663C36.135 49.0455 35.986 46.9166 35.9156 44.7834C35.9032 44.3609 35.245 44.3609 35.2574 44.7834V44.7876Z" fill="#231815"/>
<path d="M43.1434 87.6492L37.4886 87.2557C36.5696 87.1936 35.9031 86.4563 36.0066 85.6237L37.5176 73.4421C37.6211 72.6095 38.4573 71.9799 39.3763 72.0421L45.031 72.4356C45.9501 72.4977 46.6165 73.235 46.513 74.0675L45.0021 86.2492C44.8986 87.0817 44.0624 87.7113 43.1434 87.6492Z" fill="white"/>
<path d="M43.1434 87.3219C41.7442 87.2267 40.3408 87.1272 38.9416 87.032C38.4283 86.9947 37.8943 86.9988 37.3851 86.916C36.5365 86.7752 36.2757 86.1 36.3668 85.3503L37.5466 75.832L37.7742 73.9805C37.8322 73.5042 37.857 73.0817 38.2586 72.7296C38.8216 72.2326 39.5916 72.39 40.2746 72.4355L42.9074 72.6178C44.021 72.6965 46.3599 72.4562 46.1694 74.1669C46.037 75.3639 45.8714 76.5568 45.7265 77.7539L45.0435 83.2545C44.9234 84.2403 44.8737 85.2716 44.675 86.2409C44.526 86.9657 43.8388 87.3385 43.1434 87.3178C42.7211 87.3053 42.7211 87.9639 43.1434 87.9763C44.2362 88.0053 45.1842 87.3095 45.3374 86.2077C45.3953 85.7811 45.445 85.3503 45.4947 84.9237L46.1819 79.39L46.7821 74.5355C46.8483 74.0012 46.898 73.5 46.5958 73.0071C46.1322 72.2574 45.3374 72.129 44.5384 72.071C42.8619 71.9551 41.1812 71.8225 39.5046 71.7231C38.449 71.6568 37.3851 72.2409 37.1988 73.3551C37.145 73.6698 37.1202 73.9888 37.0788 74.3077L35.7789 84.787C35.7375 85.1266 35.6589 85.487 35.6672 85.8308C35.692 86.9243 36.6483 87.5207 37.6335 87.5953C39.3059 87.7237 40.9783 87.8272 42.6507 87.9432L43.1392 87.9763C43.5615 88.0053 43.5573 87.3468 43.1392 87.3178L43.1434 87.3219Z" fill="#231815"/>
<path d="M43.1102 53.6184C42.8246 58.4273 42.3113 63.2237 41.5786 67.987L43.1102 53.6184Z" fill="#FFD4CD"/>
<path d="M42.7832 53.6184C42.4976 58.3983 41.9884 63.1657 41.2639 67.9C41.2019 68.3142 41.8311 68.4923 41.8973 68.074C42.6342 63.2817 43.1516 58.4604 43.4414 53.6184C43.4662 53.1959 42.8122 53.1959 42.7832 53.6184Z" fill="#231815"/>
<path d="M25.4588 60.3948C23.9893 65.2409 22.9461 70.2113 22.3417 75.2397L25.4588 60.3948Z" fill="#FFD4CD"/>
<path d="M25.1401 60.3077C23.6664 65.187 22.6232 70.1822 22.0105 75.2396C21.9608 75.658 22.6149 75.6538 22.6687 75.2396C23.2772 70.2402 24.3204 65.303 25.7734 60.4817C25.8976 60.0757 25.2643 59.9018 25.1401 60.3077Z" fill="#231815"/>
<path d="M55.256 37.2241C55.2477 37.1082 55.2311 36.9963 55.2228 36.8762C55.2228 36.8762 55.2256 36.8748 55.2311 36.8721L55.256 37.2241Z" fill="#FFD4CD"/>
<path d="M55.5872 37.2242C55.5789 37.1082 55.5623 36.9923 55.554 36.8763L55.227 37.2035C55.285 37.2035 55.3429 37.1869 55.3967 37.1579C55.4216 37.1414 55.4464 37.1248 55.4671 37.0999L54.9082 36.868C54.9165 36.9715 54.9207 37.0751 54.9289 37.1745V37.2201C54.9289 37.2656 54.9414 37.307 54.9621 37.3485C54.9745 37.3899 54.9993 37.423 55.0283 37.4562C55.0573 37.4893 55.0945 37.51 55.1359 37.5224C55.1732 37.5431 55.2187 37.5514 55.2643 37.5514L55.3512 37.539C55.405 37.5224 55.4547 37.4934 55.4961 37.4562C55.554 37.394 55.5996 37.3112 55.5913 37.2242C55.583 37.1207 55.5789 37.0171 55.5706 36.9177V36.8721C55.5623 36.8431 55.5582 36.8142 55.554 36.7852L55.5209 36.7065L55.4712 36.6402C55.4423 36.6071 55.405 36.5863 55.3636 36.5739C55.3388 36.5573 55.3098 36.5532 55.2808 36.5532C55.2518 36.5449 55.2229 36.5449 55.1939 36.5532C55.1649 36.5532 55.1359 36.5615 55.1111 36.5739C55.0697 36.5863 55.0366 36.6112 55.0035 36.6402C55.0242 36.6278 55.049 36.6112 55.0697 36.5905C55.1235 36.5781 55.1815 36.5615 55.2353 36.5449C55.1897 36.5449 55.1483 36.5532 55.107 36.5739C55.0656 36.5863 55.0324 36.6112 54.9993 36.6402C54.9414 36.7023 54.8958 36.7852 54.9041 36.8721C54.9124 36.9881 54.929 37.1041 54.9372 37.2201C54.9372 37.2656 54.9455 37.307 54.9662 37.3485C54.9786 37.3899 55.0035 37.423 55.0324 37.4562C55.0614 37.4893 55.0987 37.51 55.1401 37.5224C55.1773 37.5431 55.2229 37.5514 55.2684 37.5514L55.3553 37.539C55.4091 37.5224 55.4588 37.4934 55.5002 37.4562C55.5582 37.394 55.6037 37.3112 55.5954 37.2242H55.5872Z" fill="#231815"/>
<path d="M7.69967 52.3885L7.46372 46.6601C6.37499 45.5045 5.21589 44.1956 5.17863 42.6051C5.14551 41.1843 5.98172 39.8672 6.04382 38.4465C6.10591 36.9968 5.57604 34.8761 5.57604 34.8761L15.7596 31.4175L18.3386 37.411L16.4012 47.6459L15.801 51.5642" fill="white"/>
<path d="M8.02672 52.3884C7.95635 50.7026 7.89011 49.0209 7.81974 47.3351C7.81146 47.1197 7.8363 46.8712 7.79076 46.66C7.72867 46.3618 7.43889 46.1588 7.24433 45.9393C6.90902 45.5665 6.58199 45.1813 6.30049 44.7671C5.75406 43.9594 5.41461 43.0647 5.53052 42.0789C5.64643 41.0931 6.10593 40.1446 6.28393 39.1547C6.54059 37.7339 6.23425 36.1807 5.89066 34.7931L5.66298 35.199C8.63111 34.1925 11.6034 33.1819 14.5715 32.1754C14.9979 32.0304 15.4201 31.8854 15.8465 31.7446L15.4739 31.5955C16.0576 32.9499 16.6413 34.3044 17.225 35.6588L17.7342 36.8393C17.8211 37.0422 17.8915 37.3322 18.024 37.5061C18.1357 37.6552 18.0861 37.1955 18.0033 37.4523C17.9453 37.6345 17.9288 37.8416 17.8956 38.028C17.2995 41.176 16.6703 44.3197 16.1073 47.476C15.8713 48.8055 15.6933 50.1517 15.4905 51.4896C15.4284 51.9038 16.0576 52.0819 16.1239 51.6635C16.5171 49.0913 16.9518 46.544 17.432 43.9842L18.4628 38.5292C18.5249 38.1937 18.6615 37.8085 18.6615 37.4647C18.6615 37.0132 18.2723 36.4416 18.0985 36.0399C17.4113 34.4493 16.7283 32.8547 16.0411 31.2641C15.9873 31.1399 15.7968 31.0694 15.6685 31.115C12.7004 32.1215 9.72811 33.1322 6.75999 34.1387C6.33361 34.2836 5.91136 34.4286 5.48498 34.5694C5.31525 34.6274 5.21176 34.7931 5.2573 34.9754C5.56363 36.2138 5.86997 37.6263 5.66712 38.8979C5.50982 39.8961 5.06274 40.8239 4.90957 41.8221C4.78124 42.6339 4.88473 43.4292 5.2159 44.1789C5.58433 45.0156 6.16802 45.7363 6.77655 46.4073C6.84278 46.4819 6.92558 46.5979 7.00423 46.6517C7.01251 46.6558 7.24433 46.9126 7.13256 46.6641C7.14084 46.6807 7.13256 46.7055 7.13256 46.7221C7.16154 46.8215 7.14084 46.9582 7.14498 47.0618L7.26503 49.986L7.36438 52.3925C7.38094 52.815 8.03914 52.815 8.02258 52.3925L8.02672 52.3884Z" fill="#231815"/>
<path d="M7.05803 36.9757C7.02905 37.8828 5.89893 38.4668 5.0503 38.1603C4.20167 37.8538 3.6925 36.926 3.62212 36.0231C3.55175 35.1201 3.83325 34.2296 4.1313 33.3722C4.42935 32.5106 5.06686 31.471 5.95274 31.6822" fill="white"/>
<path d="M6.72687 36.9757C6.68133 37.6426 5.88238 38.0195 5.28627 37.887C4.53286 37.7213 4.08578 36.9136 3.96987 36.2053C3.8167 35.2568 4.14787 34.2586 4.4749 33.3805C4.67774 32.8379 5.13725 31.8604 5.86168 32.0012C6.27565 32.084 6.44951 31.4503 6.03555 31.3675C5.22832 31.2101 4.61565 31.7361 4.21824 32.3905C3.73805 33.1858 3.44827 34.2006 3.32408 35.1118C3.20817 35.9651 3.31994 36.8722 3.82912 37.5888C4.28448 38.2266 4.9965 38.6533 5.79545 38.5456C6.5944 38.4379 7.32298 37.8249 7.38093 36.9716C7.40991 36.5491 6.75171 36.5533 6.72273 36.9716L6.72687 36.9757Z" fill="#231815"/>
<path d="M10.1669 29.6942C9.11955 29.3794 7.93561 29.806 7.19048 30.6054C6.44534 31.4048 6.10589 32.5232 6.09347 33.6167C6.08105 34.4989 6.29217 35.4267 6.88414 36.0812C7.47611 36.7356 8.50688 37.0338 9.281 36.6072" fill="white"/>
<path d="M10.2538 29.3751C9.19821 29.0852 8.08879 29.3958 7.25672 30.0876C6.37497 30.8207 5.92375 31.9473 5.79542 33.0657C5.66709 34.184 5.8658 35.4473 6.64819 36.3089C7.34779 37.0751 8.50689 37.3692 9.44245 36.8846C9.81916 36.6899 9.48799 36.1225 9.11128 36.3171C8.33303 36.7189 7.38919 36.2923 6.92969 35.6047C6.41637 34.8384 6.33358 33.8237 6.47019 32.9331C6.60679 32.0426 6.97108 31.2059 7.6417 30.6177C8.31233 30.0296 9.22305 29.7728 10.0758 30.0089C10.4856 30.1207 10.6595 29.487 10.2497 29.3751H10.2538Z" fill="#231815"/>
<path d="M13.0357 33.0284C11.8973 33.8816 12.6714 35.9734 11.4626 36.7106C10.9203 37.042 10.1628 36.7976 9.7571 36.3089C9.35142 35.8201 9.21895 35.1574 9.18169 34.5195C9.0989 33.1029 9.41351 31.6657 10.0759 30.4106C10.5354 29.545 12.0298 28.7207 13.7643 29.3006C14.9317 29.6899 16.869 33.5876 16.869 33.5876L15.8093 51.568" fill="white"/>
<path d="M12.8039 32.7965C12.1498 33.3309 12.0587 34.1634 11.9428 34.9462C11.8269 35.7291 11.4295 36.9965 10.3408 36.3794C9.25204 35.7622 9.42177 33.8859 9.59149 32.8587C9.76122 31.8315 10.0965 30.4729 11.0486 29.8723C11.8145 29.3877 13.135 29.193 13.9091 29.7604C14.4597 30.1622 14.8613 30.8125 15.2255 31.3758C15.5898 31.9391 15.9376 32.5397 16.2605 33.1403C16.3515 33.306 16.426 33.5048 16.5337 33.6581C16.6537 33.8279 16.5502 33.5877 16.5337 33.6167C16.484 33.7368 16.513 33.9604 16.5047 34.0889L16.4467 35.0995L16.2605 38.2516L15.7761 46.4445C15.6768 48.1551 15.5733 49.8616 15.4739 51.5723C15.4491 51.9948 16.1073 51.9948 16.1321 51.5723C16.4053 46.9539 16.6786 42.3315 16.9476 37.7131L17.1339 34.5238C17.1588 34.1303 17.2581 33.6954 17.0967 33.3309C16.542 32.08 15.7389 30.7835 14.8406 29.7563C14.261 29.0977 13.6152 28.8202 12.7211 28.7871C11.7648 28.7539 10.734 29.1019 10.0841 29.8309C9.23962 30.7835 8.92501 32.3699 8.8505 33.6001C8.78012 34.7557 8.87947 36.2965 10.0096 36.951C10.9162 37.477 11.9387 37.0877 12.3319 36.1391C12.7252 35.1906 12.4354 33.9439 13.2675 33.2646C13.5945 32.9954 13.1267 32.5356 12.8039 32.8007V32.7965Z" fill="#231815"/>
<path d="M14.1492 34.2794C14.1492 34.2794 14.3562 27.7268 14.4763 26.2356C14.5963 24.7445 14.6336 23.0546 15.892 22.251C16.1777 22.0688 16.5088 21.9238 16.8441 21.9735C17.5769 22.0812 17.5313 23.477 17.5851 24.2185C17.7673 26.6912 18.0446 31.5084 18.0446 31.5084C18.0446 31.5084 18.9098 35.3149 18.9512 37.1788C18.9885 38.8191 18.4586 41.9256 17.7631 43.4125C16.6537 45.7859 16.1032 49.7167 15.685 52.3013L10.0386 52.2102" fill="white"/>
<path d="M14.4763 34.2794C14.5425 32.1504 14.6129 30.0214 14.7122 27.8924C14.7702 26.6167 14.7536 25.2415 15.0931 24.0072C15.209 23.5806 15.3911 23.1622 15.6975 22.8392C15.9831 22.5409 16.7075 22.0025 17.018 22.4995C17.3657 23.0628 17.2498 24.0238 17.2954 24.6658C17.4071 26.2687 17.5065 27.8758 17.6058 29.4788C17.6514 30.2119 17.6183 30.9948 17.7632 31.7155C18.0239 33.0161 18.3054 34.3125 18.4876 35.6256C18.7111 37.2451 18.6035 38.8108 18.2972 40.4137C18.1192 41.3374 17.908 42.2818 17.5355 43.1474C17.1629 44.0131 16.8276 44.9368 16.5792 45.877C16.0328 47.9563 15.7223 50.0895 15.3829 52.2102L15.6975 51.9699C13.8139 51.9409 11.9345 51.9078 10.051 51.8788C9.62875 51.8705 9.62875 52.5291 10.051 52.5374C11.9345 52.5664 13.8139 52.5995 15.6975 52.6285C15.8299 52.6285 15.9914 52.525 16.0121 52.3883C16.3391 50.3711 16.633 48.3457 17.1298 46.3616C17.581 44.564 18.4296 42.9196 18.8229 41.1054C19.1831 39.4445 19.3942 37.7421 19.1955 36.048C19.0216 34.5818 18.7401 33.1238 18.4255 31.6782C18.4131 31.6161 18.3593 31.3137 18.38 31.496C18.3675 31.38 18.3675 31.2599 18.3593 31.1439C18.322 30.5267 18.2847 29.9096 18.2475 29.2924C18.144 27.5983 18.0281 25.9084 17.9163 24.2143C17.8708 23.5185 17.937 22.6321 17.5065 22.0356C16.9932 21.3232 16.0286 21.696 15.4657 22.1557C14.1906 23.1954 14.2113 25.138 14.1203 26.6374C13.963 29.1806 13.9009 31.7279 13.8222 34.2711C13.8098 34.6936 14.4639 34.6936 14.4804 34.2711L14.4763 34.2794Z" fill="#231815"/>
<path d="M17.1215 37.6551C17.3036 36.2427 16.2108 35.1202 15.2214 35.0167C14.232 34.9131 12.5224 35.3811 11.6944 35.932C10.763 36.5492 9.844 37.1995 9.10715 38.0403C8.90017 38.2764 8.70146 38.5415 8.66007 38.8563C8.5483 39.7385 9.74465 40.2232 10.6098 40.0078C11.475 39.7924 12.2491 39.2125 13.1392 39.1959" fill="white"/>
<path d="M17.4527 37.6552C17.5727 36.4954 16.9393 35.3233 15.8548 34.8552C14.8447 34.4203 13.5117 34.7889 12.5348 35.1576C11.2722 35.638 6.49089 38.6534 9.05746 40.099C9.54594 40.3765 10.1503 40.4469 10.6926 40.3185C11.533 40.1238 12.2574 39.5605 13.135 39.515C13.5573 39.4943 13.5573 38.8357 13.135 38.8564C12.3775 38.8978 11.7482 39.2375 11.0569 39.5067C10.5105 39.7179 9.93093 39.8298 9.38864 39.5274C8.03911 38.7736 10.6471 37.0381 11.2515 36.6156C12.2822 35.8949 13.4331 35.3937 14.7081 35.3274C15.9831 35.2611 16.9228 36.367 16.7903 37.6469C16.7489 38.0653 17.403 38.0653 17.4485 37.6469L17.4527 37.6552Z" fill="#231815"/>
<path d="M10.3988 44.3405C9.8606 42.663 10.4857 40.679 11.889 39.6145L10.3988 44.3405Z" fill="white"/>
<path d="M10.7175 44.2493C10.2373 42.7085 10.7672 40.8902 12.0587 39.8961C12.1995 39.7884 12.274 39.6144 12.1746 39.4488C12.096 39.3079 11.8642 39.2209 11.7276 39.3328C10.2083 40.5091 9.50872 42.5801 10.0841 44.4275C10.2083 44.8292 10.8417 44.6594 10.7175 44.2535V44.2493Z" fill="#231815"/>
<path d="M11.1067 103.066C6.3171 101.04 2.53761 96.7574 1.12185 91.7539C0.186289 88.4361 0.252523 84.9237 0.438807 81.4817C0.9811 71.4083 2.47551 61.3888 4.90134 51.5971C5.02553 51.1 5.16214 50.5864 5.50159 50.2054C5.91142 49.7539 14.911 49.3273 16.0204 49.5426C17.5976 49.8491 17.4362 51.0628 17.8088 52.442C18.7733 56.0042 19.6219 59.5953 20.3339 63.2196C21.7083 70.2237 22.5445 77.3231 22.9626 84.4474C23.1655 87.9101 23.2772 91.377 23.3269 94.848C23.3269 94.848 21.0998 105.348 11.1067 103.07" fill="#7891EA"/>
<path d="M11.2722 102.784C7.13258 101.011 3.74221 97.5983 2.04082 93.419C-0.0124427 88.3657 0.620923 82.5835 1.04731 77.2817C1.51095 71.516 2.28506 65.7793 3.37379 60.1006C3.9078 57.313 4.51219 54.5379 5.19523 51.7835C5.27802 51.448 5.35254 51.1 5.5057 50.7935C5.56366 50.6775 5.64231 50.5284 5.73752 50.4414C5.67129 50.5036 5.70027 50.4704 5.73338 50.4497C5.72096 50.458 6.0066 50.3793 6.09767 50.3627C6.60271 50.2633 7.11602 50.2136 7.62934 50.1681C9.15687 50.0231 10.6927 49.9361 12.2243 49.8781C13.3959 49.8326 14.6129 49.7373 15.7844 49.8491C16.4758 49.9154 16.9767 50.313 17.1754 51.0503C17.461 52.119 17.6845 53.2125 17.966 54.2852C18.6905 57.0769 19.3404 59.8894 19.9075 62.7184C21.0542 68.4302 21.8366 74.2125 22.3251 80.0196C22.561 82.8527 22.7266 85.69 22.8384 88.5272C22.8963 90.0225 22.9419 91.5178 22.9709 93.013C22.9833 93.6136 23.0868 94.2846 22.9874 94.8769C22.8881 95.4693 22.6521 96.0201 22.441 96.5462C22.0601 97.4988 21.5717 98.4101 20.9797 99.2468C19.3445 101.566 16.8525 103.02 13.9878 103.062C13.0481 103.078 12.1126 102.954 11.1977 102.751C10.7879 102.66 10.6099 103.294 11.0238 103.385C14.261 104.105 17.5852 103.608 20.0648 101.297C21.6503 99.8184 22.7515 97.8344 23.4097 95.7799C23.6746 94.9557 23.6498 94.3261 23.6332 93.4231C23.5752 90.3622 23.4635 87.3054 23.2813 84.2485C22.9212 78.2385 22.263 72.245 21.2405 66.3136C20.7272 63.3355 20.1145 60.374 19.419 57.429C19.063 55.9255 18.6863 54.4302 18.2889 52.9391C18.053 52.061 17.9909 50.9882 17.5438 50.1888C16.9104 49.058 15.5071 49.1533 14.3935 49.1616C12.8205 49.174 11.2432 49.2485 9.67019 49.348C8.39931 49.4308 7.07049 49.4722 5.82446 49.7456C5.23249 49.8781 4.98825 50.2675 4.77713 50.8515C4.29693 52.1769 4.06925 53.6474 3.76291 55.0225C2.45892 60.8545 1.48197 66.7568 0.832045 72.6965C0.505013 75.6829 0.260774 78.6775 0.103467 81.6805C-0.053839 84.6835 -0.103515 87.4835 0.451198 90.3332C1.3495 94.9515 4.09408 99.077 7.97293 101.728C8.90849 102.37 9.90201 102.908 10.9452 103.356C11.3302 103.521 11.6655 102.954 11.2764 102.788L11.2722 102.784Z" fill="#231815"/>
<path d="M32.43 107.261L34.5826 99.3046C32.579 99.7602 29.0851 98.7164 27.1644 97.9791C25.3967 97.2957 23.5753 96.7448 21.729 96.3223C21.2654 96.2146 20.7934 96.1193 20.3132 96.1359C19.3818 96.1691 14.319 97.7057 13.3752 98.0661C12.1416 98.5383 9.97655 100.696 9.21899 101.777" fill="white"/>
<path d="M32.7487 107.353C33.4649 104.702 34.1852 102.047 34.9013 99.3957C34.9717 99.1431 34.7399 98.9401 34.4957 98.9898C32.5045 99.4082 30.2277 98.6833 28.3524 98.0579C25.968 97.2626 23.6208 96.252 21.1163 95.8668C19.7627 95.6597 18.3428 96.2105 17.0595 96.575C15.7762 96.9395 14.4432 97.2709 13.2137 97.7845C12.361 98.1407 11.62 98.7952 10.9494 99.4165C10.2208 100.087 9.52119 100.808 8.94578 101.616C8.70154 101.96 9.26867 102.287 9.51291 101.947C10.0262 101.227 10.6637 100.58 11.3095 99.9798C11.9553 99.3792 12.6052 98.7827 13.3835 98.4265C14.555 97.8922 15.888 97.5981 17.1216 97.246C18.3552 96.894 19.8041 96.3017 21.1246 96.5336C23.567 96.9644 25.8479 97.917 28.1868 98.6957C30.1863 99.3626 32.5583 100.075 34.6778 99.6277L34.2721 99.2218C33.556 101.873 32.8357 104.528 32.1195 107.179C32.0077 107.589 32.6411 107.763 32.7529 107.353H32.7487Z" fill="#231815"/>
<path d="M7.50932 105.273C6.95875 105.083 6.92149 103.766 7.40583 103.393C8.14268 102.821 9.94757 101.732 11.2516 100.883C12.8619 99.8348 14.3894 98.8946 16.2729 99.2632C17.6804 99.5366 18.5746 99.7106 18.5746 99.7106" fill="white"/>
<path d="M7.67489 104.992C7.29818 104.818 7.3313 104.076 7.51344 103.77C7.72456 103.422 8.29583 103.161 8.62701 102.946C9.69917 102.246 10.7879 101.562 11.8683 100.874C12.9488 100.187 14.2114 99.4662 15.5816 99.5118C16.5503 99.5449 17.5355 99.8431 18.4876 100.025C18.9016 100.104 19.0755 99.4704 18.6615 99.3917C17.5024 99.168 16.2646 98.7662 15.0807 98.8656C13.4828 98.9982 12.1333 99.9218 10.8252 100.763C9.64536 101.521 8.30825 102.192 7.23608 103.107C6.60272 103.646 6.46197 105.153 7.33958 105.555C7.72042 105.729 8.05573 105.166 7.67075 104.988L7.67489 104.992Z" fill="#231815"/>
<path d="M9.04513 107.522C8.51112 107.75 6.24673 106.595 7.51347 105.277C7.91501 104.859 14.555 101.554 14.555 101.554C15.5609 101.094 16.9726 101.268 18.0033 101.645" fill="white"/>
<path d="M8.95405 107.203C8.60632 107.319 8.0723 106.959 7.8322 106.744C7.42238 106.375 7.32303 105.878 7.77011 105.476C8.11784 105.166 8.92093 104.805 9.42183 104.536C11.057 103.666 12.7087 102.829 14.3646 102.005C15.4947 101.442 16.7324 101.541 17.9081 101.955C18.3055 102.096 18.4794 101.463 18.082 101.322C16.8318 100.883 15.4202 100.754 14.2073 101.351C13.3876 101.752 12.5762 102.167 11.7649 102.581C10.6968 103.124 9.62881 103.674 8.5732 104.246C7.89844 104.615 7.03739 104.958 6.83455 105.787C6.67724 106.433 7.09121 107.017 7.58796 107.381C7.98537 107.671 8.62288 107.999 9.12377 107.829C9.52118 107.696 9.35145 107.063 8.94991 107.195L8.95405 107.203Z" fill="#231815"/>
<path d="M17.9991 103.708C16.1777 103.364 15.18 103.708 15.18 103.708L9.93923 106.897C9.59978 107.046 9.24377 107.212 9.04507 107.522C8.63111 108.173 9.21066 109.088 9.95165 109.303C11.9552 109.887 14.9606 108.355 16.6041 107.348C17.283 106.934 20.5409 107.083 21.7082 107.489C24.6557 108.508 27.2015 109.03 29.8509 107.386L32.4299 107.696L34.1396 99.8845" fill="white"/>
<path d="M18.0861 103.389C17.1753 103.227 15.8838 103.008 14.9979 103.434C14.3521 103.745 13.7477 104.196 13.135 104.565L10.4484 106.201C9.78194 106.607 8.75945 106.943 8.598 107.779C8.47381 108.43 8.89191 109.092 9.43007 109.428C10.0179 109.796 10.8293 109.805 11.4958 109.73C13.1061 109.552 14.646 108.84 16.0494 108.057C16.5668 107.767 16.9311 107.527 17.5231 107.469C18.1978 107.406 18.885 107.427 19.5639 107.473C20.2014 107.518 20.8513 107.58 21.4682 107.759C22.3665 108.019 23.2316 108.347 24.1506 108.537C25.1235 108.74 26.1253 108.84 27.1146 108.715C27.5824 108.657 28.046 108.554 28.489 108.401C28.7332 108.318 28.9775 108.218 29.2134 108.106C29.4245 108.011 29.6688 107.808 29.8592 107.742C30.149 107.638 30.8072 107.829 31.1425 107.87L32.4299 108.024C32.5665 108.04 32.7197 107.912 32.7445 107.783C33.3158 105.178 33.8829 102.577 34.4542 99.9715C34.5453 99.5615 33.9119 99.3834 33.8208 99.7976C33.2496 102.403 32.6824 105.004 32.1112 107.609L32.4258 107.369L30.1117 107.092C29.557 107.025 29.1389 107.444 28.6297 107.651C27.8349 107.974 26.9863 108.127 26.1335 108.119C25.2808 108.111 24.3949 107.949 23.5504 107.725C22.797 107.527 22.0725 107.216 21.315 107.05C20.1269 106.789 18.8395 106.715 17.6266 106.806C17.2209 106.835 16.7986 106.876 16.4343 107.071C15.8175 107.394 15.238 107.767 14.6088 108.065C13.3172 108.682 11.5537 109.436 10.0966 109.009C9.73226 108.902 9.40109 108.637 9.2769 108.264C9.0989 107.734 9.54184 107.456 9.9558 107.249C10.1255 107.166 10.287 107.071 10.4484 106.972L12.7211 105.588L15.1386 104.118C15.2007 104.08 15.267 104.031 15.3332 103.998C15.18 104.072 15.4284 103.981 15.4905 103.969C16.277 103.803 17.1215 103.886 17.9039 104.027C18.3179 104.101 18.4959 103.467 18.0778 103.393L18.0861 103.389Z" fill="#231815"/>
<path d="M69.902 94.3093C56.4192 94.4419 46.6745 93.9034 33.6388 97.3537C33.6388 97.3537 31.9539 106.334 31.8132 110.264C41.2309 111.138 50.6858 111.594 60.1449 111.627C68.4449 111.656 78.2103 111.668 85.463 107.638" fill="#7891EA"/>
<path d="M69.902 93.978C60.5382 94.0692 51.1329 93.7875 41.8518 95.2703C39.0575 95.7177 36.2881 96.31 33.5518 97.0307C33.4483 97.0597 33.3448 97.1508 33.3241 97.2585C32.7156 100.506 32.1733 103.77 31.7718 107.05C31.6434 108.115 31.5275 109.183 31.4861 110.256C31.4779 110.447 31.6434 110.567 31.8132 110.583C39.6288 111.304 47.4693 111.743 55.3139 111.892C62.0408 112.021 68.9085 112.215 75.5775 111.151C79.0672 110.592 82.5197 109.622 85.6327 107.912C86.0011 107.709 85.6741 107.141 85.3015 107.344C79.6592 110.451 72.9943 111.072 66.669 111.242C59.4329 111.437 52.1678 111.242 44.94 110.869C40.5602 110.645 36.1846 110.327 31.8173 109.925L32.1443 110.252C32.2975 106.35 33.0592 102.44 33.7464 98.6047C33.8168 98.2153 33.8871 97.8218 33.9616 97.4325L33.734 97.6603C38.3952 96.4342 43.1392 95.5976 47.9371 95.1709C52.4659 94.765 57.0153 94.6946 61.5607 94.6697C64.3466 94.6573 67.1285 94.6573 69.9145 94.6283C70.3367 94.6283 70.3367 93.9656 69.9145 93.9697L69.902 93.978Z" fill="#231815"/>
<path d="M43.0275 53.6682C42.0464 52.6783 41.1523 51.5972 40.3657 50.4457C40.2415 50.2635 40.1173 50.073 40.1008 49.8534C40.0801 49.5676 40.2457 49.3067 40.3988 49.0706C41.1357 47.9232 41.7566 46.7055 42.2575 45.4422C42.4852 44.8664 42.6881 44.2244 42.4894 43.6404C42.3693 43.2925 42.1209 43.0025 42.0092 42.6546C41.8974 42.3067 42.005 41.8303 42.3569 41.7392L43.1972 41.7102L42.4562 38.7156L41.086 38.4836C40.9618 38.4629 40.8252 38.4422 40.7093 38.4877C40.5727 38.5416 40.4816 38.67 40.3988 38.7943C39.0079 40.8735 37.3189 42.754 35.4023 44.3611C36.7477 43.7937 38.0972 43.2303 39.4426 42.6629C39.7862 44.0132 38.9996 45.3635 38.2421 46.5315C37.7909 47.2274 37.3438 47.9232 36.8926 48.6191" fill="#7891EA"/>
<path d="M43.2593 53.4362C42.3072 52.4711 41.3799 51.4231 40.6472 50.28C40.403 49.8989 40.4485 49.6131 40.6803 49.232C40.8418 48.9669 41.0073 48.706 41.1646 48.4409C41.4917 47.8776 41.7897 47.3018 42.0629 46.7137C42.5183 45.7279 43.1889 44.4977 42.7418 43.4042C42.6301 43.1267 41.9967 42.2942 42.4065 42.0622C42.5721 41.9711 42.9985 42.0415 43.1931 42.0332C43.4083 42.0249 43.5615 41.8302 43.5077 41.619L42.7667 38.6243C42.7418 38.5208 42.6466 38.4131 42.539 38.3965C42.0629 38.3178 41.5827 38.2184 41.1026 38.1563C40.8211 38.119 40.5727 38.1314 40.345 38.3302C40.0759 38.5705 39.8979 38.9391 39.6909 39.2291C39.426 39.606 39.1486 39.9705 38.863 40.3308C37.7577 41.7143 36.5158 42.9817 35.1663 44.1249C34.9262 44.3279 35.1829 44.8001 35.4851 44.6717C36.8304 44.1042 38.18 43.5409 39.5253 42.9734L39.1197 42.7456C39.3639 43.8515 38.8547 44.8912 38.2959 45.8149C37.737 46.7385 37.1699 47.5752 36.6028 48.4492C36.3709 48.8054 36.9422 49.1326 37.1699 48.7805C37.8364 47.7533 38.5567 46.7385 39.1404 45.6616C39.662 44.6965 39.9931 43.6652 39.7489 42.5717C39.7158 42.4143 39.5046 42.2776 39.3432 42.3439C37.9978 42.9113 36.6483 43.4746 35.3029 44.0421L35.6217 44.5888C36.7849 43.603 37.8736 42.5261 38.8547 41.3581C39.3059 40.8237 39.7365 40.2729 40.1463 39.7054C40.3574 39.4155 40.5975 38.8563 40.9866 38.7942C41.1771 38.761 41.4793 38.877 41.6738 38.9101L42.361 39.0261L42.1333 38.7983L42.8743 41.793L43.1889 41.3788C42.4935 41.4036 41.6945 41.3581 41.6366 42.2817C41.591 42.9942 42.2368 43.4746 42.2368 44.1788C42.2368 44.9865 41.7525 45.8439 41.4172 46.5563C41.0819 47.2687 40.7176 47.9356 40.3077 48.5942C39.9724 49.1409 39.5916 49.6421 39.8855 50.2965C40.1794 50.951 40.7093 51.5184 41.1439 52.061C41.6573 52.7072 42.212 53.3202 42.7874 53.9084C43.0854 54.2107 43.5491 53.7468 43.251 53.4444L43.2593 53.4362Z" fill="#231815"/>
<path d="M42.7501 35.0872L43.1972 41.702L42.3568 41.731C42.0049 41.8221 41.8973 42.2984 42.0091 42.6463C42.1208 42.9943 42.3692 43.2842 42.4893 43.6321C42.688 44.2203 42.4893 44.8582 42.2575 45.4339C41.7566 46.7014 41.1356 47.9191 40.3988 49.0623C40.2456 49.3026 40.08 49.5635 40.1007 49.8452C40.1173 50.0647 40.2414 50.2552 40.3656 50.4375C41.1522 51.5889 42.0463 52.67 43.0274 53.66C43.7726 51.1002 44.5136 48.5404 45.2587 45.9848C45.4491 45.3304 45.6478 44.6594 46.0535 44.1085C46.4757 43.5369 47.0843 43.1434 47.6804 42.7623C50.4539 40.9895 53.2234 39.2126 55.9969 37.4398L55.0821 25.5605" fill="white"/>
<path d="M42.4189 35.0871C42.568 37.2906 42.717 39.4983 42.866 41.7019L43.193 41.3747C42.4976 41.3995 41.6986 41.3539 41.6407 42.2776C41.5951 42.99 42.2409 43.4705 42.2409 44.1747C42.2409 44.9823 41.7566 45.8397 41.4213 46.5522C41.086 47.2646 40.7217 47.9315 40.3118 48.59C39.9765 49.1368 39.5957 49.638 39.8896 50.2924C40.1835 50.9468 40.7134 51.5143 41.1481 52.0569C41.6614 52.7031 42.2161 53.3161 42.7915 53.9042C42.9654 54.0823 43.2717 53.9954 43.3379 53.7593C43.8512 51.9865 44.3687 50.2178 44.882 48.4451C45.1428 47.5463 45.3912 46.6474 45.6644 45.7528C45.9086 44.9492 46.2357 44.2534 46.898 43.7066C47.5604 43.1599 48.3303 42.7374 49.0506 42.2776L51.3895 40.7782C52.9792 39.7634 54.5646 38.7445 56.1543 37.7297C56.2453 37.6717 56.324 37.564 56.3157 37.448C56.0508 33.977 55.7817 30.506 55.5168 27.0392C55.4795 26.5504 55.4422 26.0616 55.405 25.5729C55.3719 25.1545 54.7178 25.1504 54.7468 25.5729C55.0117 29.0439 55.2808 32.5149 55.5457 35.9818C55.583 36.4705 55.6202 36.9593 55.6575 37.448L55.8189 37.1664C54.1424 38.2392 52.47 39.3119 50.7934 40.3847L48.3676 41.938C47.6721 42.3853 46.927 42.8036 46.306 43.3545C45.06 44.4646 44.8034 46.3534 44.3563 47.8818C43.8016 49.7829 43.251 51.6883 42.6963 53.5895L43.2427 53.4445C42.2906 52.4794 41.3633 51.4315 40.6306 50.2883C40.3864 49.9072 40.4319 49.6214 40.6637 49.2403C40.8252 48.9752 40.9907 48.7143 41.1481 48.4492C41.4751 47.8859 41.7731 47.3102 42.0464 46.722C42.5017 45.7362 43.1723 44.506 42.7253 43.4125C42.6135 43.135 41.9801 42.3025 42.3899 42.0705C42.5555 41.9794 42.9819 42.0498 43.1765 42.0415C43.3462 42.0374 43.5159 41.8965 43.5035 41.7143C43.3545 39.5107 43.2055 37.3031 43.0564 35.0995C43.0275 34.6812 42.3734 34.677 42.3982 35.0995L42.4189 35.0871Z" fill="#231815"/>
<path d="M33.0551 19.7202C32.8398 20.1882 32.7032 20.6728 32.6494 21.1864C32.6328 21.3563 32.815 21.5219 32.9764 21.5137C33.171 21.5054 33.2869 21.3687 33.3034 21.1864C33.3034 21.1533 33.3034 21.1202 33.3158 21.0912C33.2952 21.1782 33.3158 21.1036 33.3158 21.0829C33.3241 21.029 33.3324 20.9752 33.3448 20.9172C33.3655 20.8095 33.3904 20.7018 33.4193 20.5983C33.4483 20.4947 33.4814 20.3912 33.5187 20.2918C33.5352 20.2421 33.5518 20.1882 33.5766 20.1427L33.5601 20.1799C33.5601 20.1799 33.5725 20.1509 33.5766 20.1385C33.5891 20.1095 33.6015 20.0847 33.6139 20.0557C33.6512 19.9728 33.6719 19.8941 33.647 19.803C33.6263 19.7285 33.5684 19.6456 33.498 19.6083C33.3531 19.5338 33.1254 19.5586 33.0509 19.7243L33.0551 19.7202Z" fill="#231815"/>
<path d="M51.609 28.6587C50.0566 32.2788 48.3386 34.2173 44.5177 34.9297C43.9258 35.0374 43.3255 35.0622 42.7211 35.025C39.4136 34.793 36.0687 32.4694 34.7565 30.212C33.5104 28.0664 33.0551 25.1794 33.1917 22.6983C33.2414 21.7581 33.291 20.822 33.3407 19.8859C34.1521 18.1214 36.0977 16.9037 37.6294 15.5327C37.6666 15.4995 37.7039 15.4664 37.7453 15.4333C39.5792 13.8179 41.0611 13.1717 41.7814 10.7983C42.1706 12.3557 42.0381 14.0415 41.413 15.5244C42.9944 14.5013 44.1493 12.8362 44.5591 10.993C44.613 10.7445 44.6585 10.4877 44.8158 10.293C45.1718 9.84154 45.9459 9.9658 46.3351 10.3883C46.7242 10.8108 47.076 11.9747 47.1713 12.5463C47.7715 12.3516 48.0406 11.5522 48.6615 11.4445C48.7029 11.4404 48.7443 11.4362 48.7857 11.4362H48.7899C49.1666 11.4404 49.5184 11.7262 49.6964 12.0741C49.8951 12.4551 49.9283 12.8983 49.9821 13.3291C50.3629 16.3694 52.0064 19.2273 54.4405 21.0912C54.4405 21.0912 55.9597 36.4871 55.9556 36.4871" fill="white"/>
<path d="M51.3274 28.493C50.396 30.6551 49.179 32.7344 46.9932 33.8072C45.7265 34.4326 44.2362 34.7764 42.8246 34.7019C41.1977 34.6149 39.604 33.9936 38.2296 33.1403C37.0167 32.3865 35.8617 31.3924 35.1083 30.1622C34.3094 28.8533 33.8788 27.3249 33.6553 25.8131C33.4111 24.1397 33.5311 22.4705 33.618 20.7889C33.6387 20.3871 33.618 20.0102 33.825 19.6539C34.0154 19.3267 34.239 19.0244 34.4874 18.7386C34.9593 18.2001 35.5016 17.7238 36.0521 17.264C37.2651 16.2534 38.4821 15.2427 39.7033 14.2403C40.821 13.3208 41.6448 12.277 42.0877 10.8812H41.4544C41.8187 12.4137 41.6779 13.9794 41.086 15.4332C40.9783 15.6983 41.3426 15.9551 41.5662 15.806C42.9364 14.8948 43.9878 13.5983 44.5715 12.0575C44.7206 11.664 44.8034 11.2622 44.9151 10.8563C45.0642 10.3054 45.594 10.177 46.0245 10.5581C46.5379 11.0137 46.7283 11.9829 46.8483 12.6332C46.8773 12.7948 47.0967 12.9232 47.254 12.861C47.5314 12.7492 47.7466 12.5918 47.9578 12.3806C48.1813 12.1569 48.4297 11.7676 48.7774 11.7634C49.6799 11.7551 49.6385 13.3829 49.742 13.9711C50.0193 15.5285 50.6237 17.0362 51.4847 18.3616C51.907 19.0161 52.3955 19.6291 52.9378 20.1924C53.2192 20.4823 53.5132 20.7557 53.8195 21.0167C53.8816 21.0664 54.2252 21.3107 54.101 21.0871C54.1051 21.0954 54.101 21.1078 54.101 21.1161C54.221 21.3853 54.1755 21.8534 54.2003 22.1391C54.5605 25.7965 54.9206 29.4539 55.2808 33.1072C55.3884 34.2214 55.5788 35.3563 55.612 36.4747C55.6244 36.8971 56.2826 36.8971 56.2702 36.4747C56.2412 35.4971 56.0797 34.5031 55.9845 33.5297C55.7858 31.5042 55.5871 29.4746 55.3843 27.4492C55.2104 25.6889 55.0366 23.9244 54.8627 22.164C54.8296 21.8161 54.8296 21.4433 54.7592 21.1036C54.6723 20.6729 54.0555 20.3622 53.7408 20.064C53.1199 19.4717 52.5652 18.8131 52.0933 18.0924C51.5468 17.264 51.1039 16.3693 50.7893 15.4249C50.4747 14.4806 50.3753 13.6025 50.2139 12.6664C50.0897 11.9374 49.6219 11.1048 48.7816 11.0965C47.9412 11.0883 47.7384 11.9498 47.076 12.219L47.4817 12.4468C47.3451 11.6971 47.105 10.7113 46.5586 10.1439C46.0452 9.60542 45.0559 9.44803 44.5508 10.0818C44.2652 10.438 44.2404 10.9309 44.1162 11.3492C43.963 11.8752 43.7436 12.3806 43.4704 12.8569C42.9198 13.8137 42.154 14.6173 41.2391 15.2261L41.7193 15.5989C42.3527 14.0374 42.4769 12.3391 42.0877 10.6989C42.0091 10.3717 41.5496 10.4048 41.4544 10.6989C41.0032 12.1155 40.1049 13.0764 38.9706 13.9877C37.8363 14.8989 36.6234 15.922 35.4602 16.8995C34.8765 17.3924 34.3011 17.9102 33.8209 18.5025C33.6139 18.7593 33.4193 19.0285 33.2537 19.3143C33.0219 19.7202 32.9971 20.0143 32.9723 20.4782C32.8812 22.2344 32.7487 23.9699 32.9805 25.7178C33.1875 27.2794 33.6139 28.8409 34.388 30.2244C35.1 31.5042 36.2012 32.5439 37.3975 33.3681C38.7512 34.3042 40.3243 35.0001 41.9553 35.2528C43.4869 35.4889 45.0393 35.2652 46.484 34.7226C49.2204 33.6954 50.7644 31.4048 51.8821 28.8119C52.0477 28.4267 51.4847 28.0912 51.315 28.4806L51.3274 28.493Z" fill="#231815"/>
<path d="M64.8641 24.8025C64.8765 26.9481 64.6613 29.1599 63.6636 31.0611C62.2603 33.7327 59.4909 35.4392 56.6552 36.4747C56.2495 36.6238 55.9349 36.628 55.5127 36.7398L54.4405 21.083C52.0064 19.2191 50.3629 16.3611 49.9821 13.3209C49.9283 12.8901 49.8952 12.451 49.6965 12.0658C49.5185 11.7179 49.1666 11.4321 48.7899 11.428H48.7857C48.7443 11.428 48.7029 11.4321 48.6616 11.4362C48.0406 11.5398 47.7715 12.3433 47.1713 12.538C47.0761 11.9664 46.7242 10.8025 46.3351 10.38C45.9459 9.95754 45.1718 9.83328 44.8158 10.2848C44.6585 10.4794 44.613 10.7362 44.5592 10.9848C44.1493 12.828 42.9944 14.493 41.413 15.5161C42.0381 14.0333 42.1706 12.3475 41.7815 10.7901C41.057 13.1635 39.575 13.8096 37.7453 15.425C37.7081 15.4581 37.6708 15.4913 37.6294 15.5244C36.0977 16.8954 34.148 18.1173 33.3407 19.8777C33.2952 20.8096 33.2414 21.7498 33.1917 22.6901C33.0592 25.1711 33.5105 28.0581 34.7565 30.2037C36.0688 32.4611 39.4384 34.8428 42.746 35.0788L42.9033 37.7753C39.0907 37.3652 36.0563 36.454 35.9363 36.3546L36.7932 38.2226C34.7648 38.5457 32.7612 37.1126 31.8505 35.2735C30.9397 33.4303 30.9108 31.2806 31.0929 29.2345C31.275 27.1842 31.6435 25.138 31.4696 23.0919C31.2916 21.0333 30.5713 19.07 30.1449 17.0528C29.5074 14.0291 29.8055 11.254 32.0823 9.12085C34.5288 6.82618 36.2302 5.55044 38.8133 3.41316C39.8689 2.53505 41.3468 1.47056 42.6218 0.952804C45.1511 -0.0619885 50.0897 -0.124119 50.9963 2.83328C51.8201 1.78121 53.418 1.60724 54.664 2.10843C55.9059 2.60547 56.8539 3.62854 57.6942 4.67233C62.2396 10.322 64.8144 17.5374 64.86 24.7984L64.8641 24.8025Z" fill="#302B28"/>
<path d="M64.5371 24.8024C64.5453 27.6438 64.1024 30.5184 62.1195 32.6888C61.2585 33.629 60.2277 34.3829 59.1183 35.0042C58.5346 35.3314 57.9302 35.6214 57.3134 35.874C56.6966 36.1267 56.0798 36.2675 55.4298 36.429L55.8438 36.7438C55.6327 33.6912 55.4257 30.6385 55.2146 27.5817L54.8503 22.2468C54.8255 21.8823 54.842 21.4805 54.7716 21.1202C54.693 20.6977 54.1176 20.4119 53.8154 20.1261C53.1903 19.5379 52.6314 18.8835 52.1554 18.1669C51.6172 17.3634 51.1784 16.4977 50.8597 15.5864C50.5409 14.6752 50.4002 13.7225 50.2429 12.7533C50.1228 12.0036 49.6799 11.1089 48.7981 11.1048C47.9785 11.1006 47.7549 11.958 47.0926 12.2273L47.4983 12.4551C47.3617 11.7054 47.1216 10.7196 46.5751 10.1521C46.0618 9.61366 45.0725 9.45626 44.5674 10.09C44.2818 10.4462 44.2569 10.9391 44.1328 11.3574C43.9796 11.8835 43.7602 12.3888 43.487 12.8651C42.9364 13.8219 42.1706 14.6255 41.2557 15.2344L41.7359 15.6071C42.3693 14.0456 42.4935 12.3474 42.1043 10.7071C42.0257 10.3799 41.5662 10.4131 41.471 10.7071C41.1522 11.7054 40.6223 12.5421 39.8565 13.2545C39.1528 13.9089 38.3662 14.464 37.6418 15.0894C36.7849 15.8267 35.8907 16.5267 35.0462 17.2764C34.3052 17.935 33.4856 18.7219 33.0923 19.6539C32.8936 20.1261 32.9681 20.7805 32.9433 21.29C32.906 21.9776 32.8564 22.6651 32.8481 23.3527C32.8357 24.4918 32.9392 25.635 33.1627 26.7533C33.5849 28.8574 34.4625 30.8 36.0356 32.287C37.8529 34.0018 40.2456 35.2113 42.7501 35.4142L42.4231 35.087C42.4769 35.9858 42.5266 36.8847 42.5804 37.7835L42.9074 37.4563C41.3012 37.2782 39.7033 37.0089 38.1261 36.6403C37.6459 36.5285 37.1657 36.4083 36.6897 36.2675C36.5406 36.2261 36.3916 36.1805 36.2467 36.1308C36.1639 36.1018 36.1018 36.0728 36.1101 36.077C35.8121 35.8782 35.5389 36.2551 35.663 36.5243L36.5199 38.3924L36.7145 37.9119C34.8806 38.1645 33.1586 36.9261 32.2851 35.3853C31.2874 33.6249 31.2502 31.4752 31.4075 29.5077C31.5772 27.3415 32.0036 25.1793 31.7966 22.9965C31.602 20.9338 30.89 18.9829 30.4719 16.9657C30.1159 15.2509 30.0248 13.4326 30.6623 11.7716C31.3413 10.003 32.8812 8.80182 34.2721 7.60064C35.663 6.39946 37.1161 5.24798 38.5401 4.07579C39.9641 2.9036 41.384 1.71484 43.102 1.13496C44.4805 0.671054 46.0246 0.526083 47.4652 0.741468C48.8106 0.940284 50.2429 1.53259 50.6982 2.92431C50.7686 3.13969 51.0791 3.27224 51.2447 3.06928C52.5155 1.54502 54.693 2.19946 55.9887 3.30952C57.4044 4.51898 58.5097 6.17993 59.4991 7.74147C61.5524 10.9805 63.0178 14.5758 63.8292 18.3202C64.2887 20.4492 64.5246 22.6196 64.5453 24.7983C64.5453 25.2208 65.2035 25.2208 65.2035 24.7983C65.1663 20.6148 64.3259 16.4521 62.7363 12.5835C61.9415 10.6492 60.977 8.79354 59.8344 7.04561C58.7747 5.42194 57.5783 3.64916 56.0011 2.48526C54.4239 1.32135 52.1181 1.0107 50.7852 2.60952L51.3316 2.75449C50.4043 -0.0413723 46.7449 -0.248473 44.319 0.161586C42.6425 0.443243 41.1936 1.23023 39.8275 2.22431C38.1965 3.40892 36.6607 4.74679 35.1083 6.03496C34.3094 6.69768 33.527 7.36869 32.757 8.06454C31.987 8.7604 31.2667 9.40656 30.7079 10.2515C29.6978 11.7799 29.408 13.6356 29.5695 15.4373C29.764 17.6285 30.5713 19.6953 30.9687 21.8492C31.4158 24.2557 31.0101 26.6373 30.7824 29.0438C30.5547 31.4503 30.5713 33.9521 31.8711 35.9858C32.9516 37.6716 34.8434 38.8273 36.8801 38.5456C37.1119 38.5125 37.1533 38.2308 37.0747 38.0651C36.789 37.4438 36.5034 36.8184 36.2178 36.1971L35.7707 36.6444C35.9528 36.7645 36.226 36.8184 36.433 36.8805C36.9339 37.0296 37.4389 37.1539 37.9481 37.274C39.5791 37.6551 41.2391 37.9285 42.9033 38.1107C43.073 38.1314 43.2427 37.945 43.2303 37.7835C43.1765 36.8847 43.1268 35.9858 43.073 35.087C43.0606 34.9006 42.9323 34.7722 42.746 34.7598C40.4981 34.5776 38.329 33.4882 36.669 31.9847C35.0959 30.564 34.2307 28.7249 33.8043 26.6663C33.5725 25.5521 33.4773 24.4131 33.498 23.274C33.5063 22.6817 33.5477 22.0853 33.5808 21.4929C33.6139 20.9006 33.527 20.1799 33.825 19.658C34.3342 18.7799 35.1 18.0758 35.87 17.4255C36.64 16.7752 37.4431 16.1166 38.2213 15.4498C38.9996 14.7829 39.8689 14.1906 40.5934 13.4492C41.3178 12.7077 41.7897 11.8545 42.096 10.8853H41.4627C41.827 12.4178 41.6862 13.9835 41.0943 15.4373C40.9866 15.7024 41.3509 15.9592 41.5745 15.8101C42.9447 14.8989 43.9961 13.6024 44.5798 12.0616C44.7289 11.6681 44.8117 11.2663 44.9234 10.8604C45.0724 10.3095 45.6023 10.1811 46.0328 10.5622C46.5462 11.0178 46.7366 11.987 46.8566 12.6373C46.8856 12.7989 47.105 12.9273 47.2623 12.8651C47.5397 12.7533 47.7549 12.5959 47.9661 12.3847C48.1896 12.161 48.438 11.7675 48.7899 11.7675C49.6923 11.7634 49.6468 13.387 49.7502 13.9752C50.0317 15.5616 50.6527 17.0941 51.5386 18.4361C51.9815 19.1071 52.4907 19.7409 53.0578 20.3125C53.3186 20.5776 53.625 20.9421 53.952 21.1243C54.0017 21.1533 54.2128 21.2403 54.1093 21.0995C54.1134 21.1077 54.1093 21.1243 54.1093 21.1326C54.2293 21.3935 54.1631 21.9154 54.1838 22.1971L54.9455 33.3143C55.0242 34.4574 55.1028 35.6048 55.1815 36.748C55.198 36.9634 55.3802 37.1166 55.5954 37.0628C56.2992 36.8888 56.9532 36.7273 57.628 36.4456C58.2489 36.1888 58.8533 35.8989 59.4412 35.5716C60.6375 34.9006 61.7676 34.0681 62.6784 33.0367C64.7068 30.7462 65.1953 27.7722 65.1828 24.8024C65.1828 24.3799 64.5246 24.3799 64.5246 24.8024H64.5371Z" fill="#231815"/>
<path d="M44.7579 20.4284C44.6544 21.3769 45.1056 22.2053 45.7638 22.2757C46.422 22.3461 47.0388 21.6378 47.1423 20.6893C47.2458 19.7408 46.7946 18.9124 46.1364 18.842C45.4782 18.7716 44.8614 19.4799 44.7579 20.4284Z" fill="#231815"/>
<path d="M36.9836 20.822C36.8843 21.725 37.3106 22.512 37.9357 22.5782C38.5608 22.6486 39.1486 21.9694 39.248 21.0705C39.3473 20.1676 38.921 19.3806 38.2959 19.3143C37.6708 19.2481 37.083 19.9191 36.9836 20.822Z" fill="#231815"/>
<path d="M39.9766 22.0481C39.5627 22.0688 39.157 22.1972 38.8051 22.4126C38.2959 22.7232 37.8861 23.3528 38.1138 23.9037C38.3622 24.5002 39.1404 24.612 39.7821 24.641" fill="white"/>
<path d="M39.9766 21.7209C39.1611 21.7706 38.2752 22.1558 37.8902 22.922C37.6998 23.299 37.6625 23.7173 37.8447 24.1025C37.9978 24.4339 38.3042 24.6451 38.6353 24.7735C38.9955 24.9185 39.4012 24.9516 39.7862 24.9682C39.9642 24.9765 40.1132 24.8108 40.1132 24.641C40.1132 24.4587 39.9642 24.322 39.7862 24.3138C39.4343 24.2972 39.1445 24.2806 38.8092 24.1398C38.8547 24.1605 38.7471 24.1067 38.7388 24.1025C38.7016 24.0818 38.6643 24.057 38.6271 24.0362C38.5526 23.9907 38.656 24.0694 38.5939 24.0114C38.565 23.9824 38.5319 23.9534 38.5029 23.9203C38.478 23.8913 38.4739 23.8871 38.4946 23.912C38.4822 23.8954 38.4698 23.8747 38.4573 23.8581C38.4449 23.8416 38.4118 23.7753 38.4159 23.7753C38.3911 23.7132 38.3787 23.6469 38.3787 23.5806C38.3787 23.4854 38.3787 23.4729 38.4077 23.3818C38.4366 23.2907 38.4573 23.241 38.5112 23.1499C38.5939 23.0132 38.7223 22.8723 38.8423 22.7812C39.1611 22.5327 39.5792 22.4001 39.9766 22.3753C40.1546 22.3629 40.3036 22.2303 40.3036 22.0481C40.3036 21.8783 40.1546 21.7084 39.9766 21.7209Z" fill="#231815"/>
<path d="M39.9932 28.5964C41.4172 29.0769 43.0731 28.7953 44.2611 27.8757L39.9932 28.5964Z" fill="white"/>
<path d="M39.9062 28.9113C41.4213 29.4083 43.16 29.1267 44.4267 28.1574C44.5675 28.0497 44.6378 27.8758 44.5426 27.7101C44.464 27.5693 44.2321 27.4864 44.0955 27.5941C42.953 28.4681 41.4462 28.7332 40.0801 28.2817C39.6785 28.1491 39.5047 28.7829 39.9062 28.9154V28.9113Z" fill="#231815"/>
<path d="M43.9299 16.5888C45.118 16.0669 46.5379 16.2574 47.5894 17.003C47.933 17.2474 48.2641 16.6799 47.9205 16.4355C46.6662 15.545 44.998 15.4125 43.5988 16.0213C43.4373 16.0918 43.4 16.332 43.4828 16.4687C43.5822 16.6344 43.7685 16.6592 43.9299 16.5847V16.5888Z" fill="#231815"/>
<path d="M38.6767 16.5141C37.7163 15.9384 36.462 15.9425 35.5099 16.5348C35.1497 16.7585 35.4809 17.326 35.8411 17.1023C36.5986 16.6301 37.5797 16.6218 38.3455 17.0816C38.7098 17.3011 39.0369 16.7337 38.6767 16.5141Z" fill="#231815"/>
<path d="M56.4979 36.4911C54.4694 37.0586 51.2033 37.5887 49.3777 36.6237C52.6314 34.8716 54.2335 28.8408 54.7178 25.1503L56.3778 23.7668" fill="#302B28"/>
<path d="M56.411 36.1763C55.2767 36.4869 54.1135 36.7189 52.9419 36.8017C51.7704 36.8845 50.5782 36.8638 49.5433 36.3419V36.9094C51.4641 35.8449 52.5859 33.7366 53.3766 31.7692C53.8402 30.6135 54.2004 29.4206 54.486 28.2112C54.6185 27.6561 54.7344 27.097 54.8338 26.5337C54.8751 26.2934 54.9165 26.0532 54.9538 25.8088C54.9745 25.6804 55.0076 25.5396 55.0118 25.407C55.0159 25.2165 55.0283 25.3118 54.9704 25.3698C55.4795 24.881 56.0674 24.4544 56.6097 24.0029C56.9325 23.7337 56.4689 23.2698 56.146 23.539C55.6534 23.949 55.1608 24.3632 54.664 24.7733C54.3991 24.9928 54.3908 25.1709 54.337 25.5189C54.2583 26.0532 54.1631 26.5875 54.0555 27.1177C53.5836 29.4248 52.8881 31.7692 51.6586 33.7946C51.0418 34.8135 50.2636 35.7579 49.2121 36.3419C49.0051 36.4579 48.9927 36.7976 49.2121 36.9094C51.4103 38.0195 54.3287 37.4354 56.5848 36.81C56.9905 36.6982 56.8208 36.0644 56.411 36.1763Z" fill="#231815"/>
<path d="M53.1944 20.793C53.9478 20.2255 55.02 19.7699 55.9473 19.5835C56.8704 19.4013 57.9343 19.6373 58.5056 20.3871C59.3376 21.4805 58.7995 23.1001 57.926 24.1646C57.3506 24.8646 56.6096 25.4734 55.7279 25.6805C54.8461 25.8876 53.8112 25.606 53.3144 24.848" fill="white"/>
<path d="M53.36 21.0745C54.1507 20.4905 55.1069 20.0639 56.0756 19.8899C56.8828 19.7449 57.8598 19.9686 58.3234 20.6976C58.7871 21.4266 58.5801 22.4165 58.1992 23.1538C57.7729 23.9781 57.0774 24.7319 56.2412 25.1461C55.405 25.5603 54.1838 25.523 53.6001 24.6781C53.36 24.3343 52.7929 24.6615 53.033 25.0094C53.6415 25.8875 54.7509 26.2189 55.7734 26.0035C56.8994 25.7633 57.8515 24.8976 58.4807 23.9656C59.0686 23.0958 59.4701 21.9112 59.1224 20.8715C58.7746 19.8319 57.777 19.2562 56.7172 19.1982C56.0963 19.165 55.4753 19.3266 54.8999 19.5337C54.2376 19.7739 53.596 20.0887 53.0288 20.5071C52.6935 20.7556 53.0205 21.323 53.36 21.0745Z" fill="#231815"/>
<path d="M54.5605 22.7065C55.4836 22.1639 56.3861 21.8367 57.2471 21.8905L54.5605 22.7065Z" fill="white"/>
<path d="M54.7261 22.9923C55.4919 22.545 56.3447 22.1722 57.2471 22.2219C57.4251 22.2302 57.5742 22.0645 57.5742 21.8947C57.5742 21.7083 57.4251 21.5757 57.2471 21.5675C56.2329 21.5136 55.256 21.9278 54.3949 22.429C54.0306 22.6402 54.3618 23.2077 54.7261 22.9965V22.9923Z" fill="#231815"/>
<path d="M60.0787 13.561C62.6039 19.0284 62.3679 25.5977 59.4701 30.8704C59.3418 31.1024 59.6978 31.3136 59.8262 31.0775C62.7984 25.6639 63.022 18.9539 60.4347 13.3497C60.3229 13.1095 59.9669 13.3166 60.0787 13.5568V13.561Z" fill="white"/>
<path d="M58.311 27.1302C58.3483 28.3355 57.9136 29.5243 57.1023 30.4148C56.9243 30.6095 57.214 30.9036 57.3962 30.7089C58.2821 29.7397 58.7705 28.4474 58.7291 27.1344C58.7209 26.8693 58.3069 26.8693 58.3152 27.1344L58.311 27.1302Z" fill="white"/>
<path d="M36.106 7.52199C32.9723 9.28648 31.275 13.1054 32.0409 16.6137C32.0988 16.8746 32.4962 16.7628 32.4383 16.5019C31.7138 13.1717 33.349 9.54743 36.313 7.8782C36.5448 7.74565 36.3378 7.38944 36.106 7.52199Z" fill="white"/>
<path d="M69.7778 94.8314C71.1274 95.6432 72.3237 96.6788 73.3255 97.8965C73.4373 98.0332 73.6733 98.0125 73.7892 97.8965C73.9258 97.7598 73.9009 97.5693 73.7892 97.4326C72.7543 96.1776 71.5041 95.1048 70.109 94.2681C69.7447 94.0486 69.4177 94.616 69.7778 94.8356V94.8314Z" fill="#231815"/>
<path d="M70.0676 94.5331C71.206 94.4876 72.3485 94.7071 73.3793 95.1959C73.5408 95.2704 73.7353 95.2414 73.8264 95.0799C73.9092 94.9391 73.8678 94.7071 73.7105 94.6326C72.5721 94.0941 71.3261 93.829 70.0676 93.8787C69.6454 93.8953 69.6454 94.5539 70.0676 94.5373V94.5331Z" fill="#231815"/>
<path d="M49.3322 32.8711L43.3421 39.5397L42.7501 35.0871C42.7501 35.0871 45.5485 35.4184 49.3322 32.8711Z" fill="#231815"/>
<path d="M4.01956 56.6587C7.87771 56.6835 11.7317 56.5924 15.5857 56.4019C15.7596 56.3936 15.9169 56.2569 15.9128 56.0747C15.8589 53.9332 15.7265 51.6883 15.1469 49.6173C15.031 49.2113 14.3977 49.3853 14.5136 49.7912C15.0807 51.8042 15.2049 53.9871 15.2587 56.0705L15.5857 55.7433C11.7317 55.9338 7.87771 56.025 4.01956 56.0001C3.59732 56.0001 3.59732 56.6545 4.01956 56.6587Z" fill="#231815"/>
<path d="M15.5858 56.4017C16.4468 56.3437 17.312 56.2858 18.173 56.2236L18.5456 56.1988C18.7236 56.1864 18.8726 56.058 18.8726 55.8716C18.8726 55.7017 18.7236 55.5319 18.5456 55.5443C17.6846 55.6023 16.8194 55.6603 15.9583 55.7224L15.5858 55.7473C15.4078 55.7597 15.2587 55.8881 15.2587 56.0745C15.2587 56.2443 15.4078 56.4142 15.5858 56.4017Z" fill="#231815"/>
<path d="M32.372 106.744C33.6884 106.847 35.0007 106.934 36.3171 107.009C37.116 107.054 38.0764 107.315 38.5401 106.483C38.8671 105.895 38.8754 105.116 38.9623 104.466C39.0824 103.608 39.1859 102.751 39.2811 101.889C39.4798 100.042 39.6247 98.1906 39.7116 96.3349C39.7323 95.9124 39.0741 95.9124 39.0534 96.3349C38.9706 97.9959 38.8505 99.6527 38.6808 101.309C38.5939 102.142 38.4987 102.979 38.391 103.807C38.3 104.491 38.2834 105.294 38.0557 105.949C37.9067 106.379 37.7328 106.412 37.3354 106.4C36.8677 106.383 36.3999 106.354 35.9321 106.325C34.744 106.255 33.5559 106.176 32.3679 106.085C31.9456 106.052 31.9498 106.711 32.3679 106.744H32.372Z" fill="#231815"/>
<path d="M38.1137 105.961C37.9729 107.527 37.7163 109.08 37.6625 110.65C37.65 111.072 38.3041 111.072 38.3207 110.65C38.3703 109.08 38.6311 107.522 38.7719 105.961C38.8091 105.538 38.1509 105.542 38.1137 105.961Z" fill="#231815"/>
<path d="M42.9033 86.7296L38.0723 86.361C37.4224 86.3113 36.9546 85.6734 37.0291 84.9444L38.1716 74.1793C38.2503 73.4503 38.8464 72.8953 39.4963 72.945L44.3273 73.3136C44.9772 73.3633 45.445 74.0012 45.3705 74.7302L44.2279 85.4953C44.1493 86.2243 43.5532 86.7793 42.9033 86.7296Z" fill="#EFEFEF"/>
<path d="M42.9778 76.2047C42.895 76.971 42.2161 77.5467 41.4585 77.4846C40.701 77.4224 40.1504 76.7514 40.2332 75.9852C40.316 75.2189 40.9949 74.6431 41.7525 74.7053C42.51 74.7674 43.0606 75.4384 42.9778 76.2047Z" fill="#898989"/>
<path d="M39.0203 80.5621L39.1113 79.7172C39.2355 78.5532 40.2746 77.6751 41.4254 77.7663C42.5762 77.8574 43.4124 78.8846 43.2924 80.0485L43.2013 80.8935L39.0203 80.5621Z" fill="#898989"/>
<path d="M43.309 82.7241L38.6436 82.3555C38.3828 82.3348 38.1924 82.1028 38.2214 81.8377C38.2503 81.5727 38.4863 81.3738 38.7471 81.3945L43.4125 81.7632C43.6733 81.7839 43.8637 82.0158 43.8347 82.2809C43.8057 82.546 43.5698 82.7448 43.309 82.7241Z" fill="#898989"/>
<path d="M43.1558 84.1738L38.4904 83.8052C38.2296 83.7845 38.0392 83.5525 38.0682 83.2875C38.0971 83.0224 38.3331 82.8235 38.5939 82.8443L43.2593 83.2129C43.5201 83.2336 43.7105 83.4656 43.6815 83.7306C43.6525 83.9957 43.4166 84.1946 43.1558 84.1738Z" fill="#898989"/>
<path d="M12.5307 54.1856C13.2211 54.1856 13.7809 53.6256 13.7809 52.9347C13.7809 52.2439 13.2211 51.6838 12.5307 51.6838C11.8402 51.6838 11.2805 52.2439 11.2805 52.9347C11.2805 53.6256 11.8402 54.1856 12.5307 54.1856Z" fill="white"/>
<path d="M13.4538 52.9348C13.4538 53.142 13.4 53.3035 13.2676 53.494C13.2096 53.5769 13.2883 53.4733 13.2469 53.5189C13.2303 53.5396 13.2096 53.5603 13.193 53.581C13.1765 53.5976 13.1641 53.61 13.1475 53.6266C13.1475 53.6266 13.0647 53.697 13.1144 53.6597C13.073 53.6928 13.0233 53.7218 12.9778 53.7508C12.9571 53.7633 12.9405 53.7715 12.9198 53.7798C12.8826 53.7964 12.8784 53.8005 12.9074 53.7881C12.8909 53.7964 12.8784 53.8005 12.8619 53.8047C12.4562 53.9414 12.0753 53.8378 11.8021 53.5106C11.8311 53.5479 11.8021 53.5064 11.7938 53.4982C11.7773 53.4692 11.7566 53.4443 11.74 53.4153C11.7276 53.3946 11.7193 53.378 11.7069 53.3573C11.7069 53.3573 11.6614 53.2579 11.6862 53.3159C11.6655 53.2662 11.649 53.2124 11.6365 53.1585C11.6324 53.1378 11.6283 53.113 11.62 53.0922C11.6117 53.0508 11.6117 53.0467 11.62 53.0798C11.62 53.0632 11.62 53.0467 11.6158 53.0301C11.6158 52.9763 11.6158 52.9266 11.6158 52.8727C11.6158 52.8727 11.6283 52.7609 11.6158 52.823C11.6158 52.8023 11.6241 52.7775 11.6283 52.7567C11.6407 52.7029 11.6572 52.6491 11.6738 52.5952C11.7069 52.5041 11.6448 52.6366 11.6945 52.5538C11.7111 52.5248 11.7235 52.4958 11.74 52.4668C11.8435 52.2928 11.9636 52.1851 12.1747 52.0899C12.1623 52.094 12.125 52.1064 12.1871 52.0857C12.2202 52.0733 12.2492 52.065 12.2823 52.0567C12.303 52.0526 12.3237 52.0443 12.3486 52.0402C12.3403 52.0402 12.4479 52.0236 12.4065 52.0277C12.3651 52.0319 12.4727 52.0236 12.4645 52.0236C12.4934 52.0236 12.5224 52.0236 12.5514 52.0236C12.5804 52.0236 12.6094 52.0236 12.6383 52.0236C12.7128 52.0236 12.6218 52.0153 12.688 52.0319C12.8453 52.0692 12.8909 52.0816 13.0109 52.152C13.0316 52.1644 13.0482 52.1769 13.0647 52.1851C13.0813 52.1976 13.102 52.21 13.1185 52.2224C13.0937 52.2059 13.0978 52.21 13.1268 52.2348C13.1641 52.2721 13.2055 52.3094 13.2427 52.3508C13.3752 52.4875 13.4538 52.7402 13.458 52.9431C13.4621 53.3656 14.1203 53.3656 14.1162 52.9431C14.1079 52.2763 13.6939 51.6922 13.073 51.4562C12.452 51.2201 11.74 51.423 11.3302 51.9201C10.9204 52.4171 10.8293 53.1668 11.177 53.7467C11.5248 54.3266 12.1913 54.6082 12.8453 54.4881C13.5822 54.3556 14.1038 53.6721 14.1162 52.939C14.1203 52.5165 13.4663 52.5165 13.458 52.939L13.4538 52.9348Z" fill="#231815"/>
<path d="M35.5719 105.215C36.2624 105.215 36.8221 104.655 36.8221 103.965C36.8221 103.274 36.2624 102.714 35.5719 102.714C34.8815 102.714 34.3218 103.274 34.3218 103.965C34.3218 104.655 34.8815 105.215 35.5719 105.215Z" fill="white"/>
<path d="M36.4951 103.964C36.4951 104.171 36.4413 104.333 36.3088 104.524C36.2509 104.606 36.3295 104.503 36.2881 104.548C36.2716 104.569 36.2509 104.59 36.2343 104.611C36.2177 104.627 36.2053 104.64 36.1888 104.656C36.1888 104.656 36.106 104.727 36.1557 104.689C36.1143 104.722 36.0646 104.751 36.019 104.78C35.9983 104.793 35.9818 104.801 35.9611 104.809C35.9238 104.826 35.9197 104.83 35.9487 104.818C35.9321 104.826 35.9197 104.83 35.9031 104.834C35.4974 104.971 35.1166 104.867 34.8434 104.54C34.8724 104.577 34.8434 104.536 34.8351 104.528C34.8185 104.499 34.7978 104.474 34.7813 104.445C34.7689 104.424 34.7606 104.408 34.7482 104.387C34.7482 104.387 34.7026 104.287 34.7275 104.345C34.7068 104.296 34.6902 104.242 34.6778 104.188C34.6737 104.167 34.6695 104.143 34.6612 104.122C34.653 104.08 34.653 104.076 34.6612 104.109C34.6612 104.093 34.6612 104.076 34.6571 104.06C34.6571 104.006 34.6571 103.956 34.6571 103.902C34.6571 103.902 34.6695 103.79 34.6571 103.853C34.6571 103.832 34.6654 103.807 34.6695 103.786C34.6819 103.732 34.6985 103.679 34.7151 103.625C34.7482 103.534 34.6861 103.666 34.7358 103.583C34.7523 103.554 34.7647 103.525 34.7813 103.496C34.8848 103.322 35.0048 103.215 35.216 103.119C35.2035 103.124 35.1663 103.136 35.2284 103.115C35.2615 103.103 35.2905 103.095 35.3236 103.086C35.3443 103.082 35.365 103.074 35.3898 103.07C35.3815 103.07 35.4892 103.053 35.4478 103.057C35.4064 103.061 35.514 103.053 35.5057 103.053C35.5347 103.053 35.5637 103.053 35.5927 103.053C35.6216 103.053 35.6506 103.053 35.6796 103.053C35.7541 103.053 35.663 103.045 35.7293 103.061C35.8866 103.099 35.9321 103.111 36.0522 103.182C36.0729 103.194 36.0894 103.206 36.106 103.215C36.1225 103.227 36.1432 103.24 36.1598 103.252C36.135 103.235 36.1391 103.24 36.1681 103.264C36.2053 103.302 36.2467 103.339 36.284 103.38C36.4165 103.517 36.4951 103.77 36.4992 103.973C36.5034 104.395 37.1616 104.395 37.1574 103.973C37.1492 103.306 36.7352 102.722 36.1143 102.486C35.4933 102.25 34.7813 102.453 34.3715 102.95C33.9616 103.447 33.8706 104.196 34.2183 104.776C34.566 105.356 35.2325 105.638 35.8866 105.518C36.6234 105.385 37.145 104.702 37.1574 103.969C37.1616 103.546 36.5075 103.546 36.4992 103.969L36.4951 103.964Z" fill="#231815"/>
</g>
<defs>
<clipPath id="clip0_53_2179">
<rect width="90" height="112" fill="white"/>
</clipPath>
</defs>
</svg>
