<svg width="48" height="48" viewBox="0 0 48 48" fill="none" xmlns="http://www.w3.org/2000/svg">
<rect width="48" height="48" rx="24" fill="white" fill-opacity="0.16"/>
<g clip-path="url(#clip0_0_1)">
<path d="M17.2383 29.7202C16.8607 29.7202 16.5496 29.41 16.5496 29.0336V20.242H29.9786V25.4582C30.5327 25.5819 31.0545 25.7919 31.5273 26.0734V17.924C31.5273 16.7703 30.5808 15.8257 29.4236 15.8257H28.9691V16.7128C28.9691 17.6617 28.1948 18.439 27.243 18.439H26.1811C25.2293 18.439 24.4549 17.6617 24.4549 16.7128V15.8257H22.0733V16.7128C22.0733 17.6617 21.2989 18.439 20.3419 18.439H19.2852C18.3334 18.439 17.5591 17.6617 17.5591 16.7128V15.8257H17.2383C16.0042 15.8257 15 16.8278 15 18.053V29.0336C15 30.264 16.0042 31.2652 17.2383 31.2652H23.3161C23.2969 31.1075 23.2925 30.9454 23.2925 30.7834C23.2925 30.4209 23.3257 30.0636 23.3974 29.7202H17.2383Z" fill="white"/>
<path d="M20.3454 21.5039H18.2059C18.0591 21.5039 17.9402 21.6225 17.9402 21.7688V22.9426C17.9402 23.0889 18.0591 23.2075 18.2059 23.2075H20.3454C20.4922 23.2075 20.6111 23.0889 20.6111 22.9426V21.7688C20.6111 21.6225 20.4922 21.5039 20.3454 21.5039Z" fill="white"/>
<path d="M20.3454 26.7529H18.2059C18.059 26.7529 17.9402 26.8714 17.9402 27.0187V28.1925C17.9402 28.3389 18.059 28.4574 18.2059 28.4574H20.3454C20.4923 28.4574 20.6111 28.3389 20.6111 28.1925V27.0187C20.6111 26.8723 20.4923 26.7529 20.3454 26.7529Z" fill="white"/>
<path d="M26.1828 23.2075H28.3224C28.4692 23.2075 28.5889 23.089 28.5889 22.9426V21.7688C28.5889 21.6224 28.4701 21.5039 28.3224 21.5039H26.1828C26.036 21.5039 25.9171 21.6224 25.9171 21.7688V22.9426C25.9171 23.089 26.036 23.2075 26.1828 23.2075Z" fill="white"/>
<path d="M24.6 21.7688C24.6 21.6224 24.4812 21.5039 24.3335 21.5039H22.1939C22.0471 21.5039 21.9282 21.6224 21.9282 21.7688V22.9426C21.9282 23.089 22.0471 23.2075 22.1939 23.2075H24.3335C24.4803 23.2075 24.6 23.089 24.6 22.9426V21.7688Z" fill="white"/>
<path d="M24.5982 27.0172C24.5982 26.8743 24.4838 26.7549 24.3352 26.7549H22.193C22.0497 26.7549 21.9299 26.8743 21.9299 27.0172V28.1944C21.9299 28.3374 22.0497 28.4567 22.193 28.4567H23.8143C24.0205 28.0184 24.2827 27.6132 24.5991 27.2507V27.0172H24.5982Z" fill="white"/>
<path d="M20.3454 24.1284H18.2059C18.0591 24.1284 17.9402 24.247 17.9402 24.3933V25.5671C17.9402 25.7134 18.0591 25.832 18.2059 25.832H20.3454C20.4922 25.832 20.6111 25.7134 20.6111 25.5671V24.3933C20.6111 24.247 20.4922 24.1284 20.3454 24.1284Z" fill="white"/>
<path d="M26.1811 25.8335H26.4581C27.1084 25.5286 27.8303 25.3517 28.5907 25.3281V24.394C28.5907 24.2458 28.4709 24.1265 28.3232 24.1265H26.1802C26.0369 24.1265 25.9171 24.2458 25.9171 24.394V25.5669C25.9171 25.7142 26.0369 25.8335 26.1802 25.8335H26.1811Z" fill="white"/>
<path d="M24.3335 24.1284H22.1939C22.0471 24.1284 21.9282 24.2469 21.9282 24.3933V25.5671C21.9282 25.7135 22.0471 25.832 22.1939 25.832H24.3335C24.4803 25.832 24.6 25.7135 24.6 25.5671V24.3933C24.6 24.2469 24.4812 24.1284 24.3335 24.1284Z" fill="white"/>
<path d="M19.2861 17.2695H20.3454C20.654 17.2695 20.9039 17.0203 20.9039 16.7127V14.5568C20.9039 14.2492 20.654 14 20.3454 14H19.2861C18.9776 14 18.7277 14.2492 18.7277 14.5568V16.7127C18.7277 17.0203 18.9776 17.2695 19.2861 17.2695Z" fill="white"/>
<path d="M26.1828 17.2695H27.242C27.5506 17.2695 27.8005 17.0203 27.8005 16.7127V14.5568C27.8005 14.2492 27.5506 14 27.242 14H26.1828C25.8742 14 25.6243 14.2492 25.6243 14.5568V16.7127C25.6243 17.0203 25.8742 17.2695 26.1828 17.2695Z" fill="white"/>
<path d="M28.769 26.563C26.4319 26.563 24.538 28.4513 24.538 30.7815C24.538 33.1116 26.4319 34.9999 28.769 34.9999C31.1061 34.9999 33 33.1116 33 30.7815C33 28.4513 31.1052 26.563 28.769 26.563ZM30.4978 31.401H28.769C28.4255 31.401 28.1476 31.1239 28.1476 30.7815V28.44C28.1476 28.0975 28.4255 27.8204 28.769 27.8204C29.1125 27.8204 29.3904 28.0975 29.3904 28.44V30.1619H30.4978C30.8412 30.1619 31.1192 30.439 31.1192 30.7815C31.1192 31.1239 30.8412 31.401 30.4978 31.401Z" fill="white"/>
</g>
<defs>
<clipPath id="clip0_0_1">
<rect width="18" height="21" fill="white" transform="translate(15 14)"/>
</clipPath>
</defs>
</svg>
