<svg width="12" height="12" viewBox="0 0 12 12" fill="none" xmlns="http://www.w3.org/2000/svg">
<path d="M9.0155 8.3084L11.1568 10.4497L10.4497 11.1568L8.3084 9.0155C7.53845 9.6315 6.562 10 5.5 10C3.016 10 1 7.984 1 5.5C1 3.016 3.016 1 5.5 1C7.984 1 10 3.016 10 5.5C10 6.562 9.6315 7.53845 9.0155 8.3084ZM8.01235 7.9374C8.62375 7.3073 9 6.4478 9 5.5C9 3.56625 7.43375 2 5.5 2C3.56625 2 2 3.56625 2 5.5C2 7.43375 3.56625 9 5.5 9C6.4478 9 7.3073 8.62375 7.9374 8.01235L8.01235 7.9374Z" fill="white"/>
</svg>
