<svg width="12" height="12" viewBox="0 0 12 12" fill="none" xmlns="http://www.w3.org/2000/svg">
<path d="M10.5 8.21V9.97805C10.5 10.2406 10.297 10.4583 10.0352 10.4768C9.81655 10.4923 9.63815 10.5 9.5 10.5C5.0817 10.5 1.5 6.9183 1.5 2.5C1.5 2.36186 1.50773 2.18344 1.52318 1.96475C1.54169 1.70294 1.75947 1.5 2.02193 1.5H3.79005C3.91839 1.5 4.02588 1.59721 4.03876 1.7249C4.05033 1.83953 4.06109 1.93157 4.07103 2.00101C4.17217 2.70736 4.37876 3.37968 4.67435 4.00151C4.72179 4.10132 4.69086 4.22079 4.60092 4.28503L3.52178 5.0559C4.17876 6.59055 5.40945 7.82125 6.9441 8.47825L7.71355 7.40095C7.7786 7.30995 7.8995 7.27865 8.0005 7.3266C8.6223 7.62195 9.29455 7.8283 10.0008 7.9292C10.0698 7.9391 10.1613 7.94975 10.2751 7.96125C10.4028 7.97415 10.5 8.08165 10.5 8.21Z" fill="#7A7F89"/>
</svg>
