<svg width="16" height="16" viewBox="0 0 16 16" fill="none" xmlns="http://www.w3.org/2000/svg">
<path d="M1.50459 11.7503C1.18041 11.1887 0.937076 10.6028 0.770996 10.0057C1.50035 9.63355 1.99979 8.87522 1.99979 8.00027C1.99979 7.126 1.5011 6.36812 0.772646 5.99568C1.10769 4.7875 1.74393 3.66232 2.64855 2.74263C3.33552 3.18824 4.24201 3.24163 4.99979 2.80412C5.75757 2.36662 6.16458 1.55488 6.12215 0.737151C7.37097 0.413571 8.66352 0.425151 9.87732 0.739086C9.83562 1.55617 10.2426 2.36696 10.9998 2.80412C11.7576 3.24161 12.664 3.18824 13.3509 2.74267C13.785 3.18502 14.1708 3.68875 14.495 4.25028C14.8191 4.8118 15.0625 5.39781 15.2286 5.99483C14.4992 6.36697 13.9998 7.12532 13.9998 8.00027C13.9998 8.87462 14.4984 9.63242 15.2269 10.0049C14.8919 11.213 14.2557 12.3382 13.351 13.2579C12.664 12.8123 11.7576 12.7589 10.9998 13.1964C10.242 13.6339 9.83502 14.4457 9.8774 15.2634C8.62865 15.587 7.3361 15.5754 6.12225 15.2615C6.16393 14.4443 5.75697 13.6336 4.99979 13.1964C4.24203 12.7589 3.33559 12.8123 2.64863 13.2578C2.21463 12.8155 1.82879 12.3118 1.50459 11.7503ZM5.74979 11.8974C6.56832 12.37 7.15617 13.1171 7.43772 13.9745C7.81145 14.0101 8.18765 14.0106 8.56145 13.9757C8.84285 13.1179 9.43085 12.3702 10.2498 11.8974C11.0687 11.4245 12.0102 11.2892 12.8939 11.4744C13.1109 11.1681 13.2986 10.842 13.4547 10.5006C12.8529 9.8281 12.4998 8.94542 12.4998 8.00027C12.4998 7.05512 12.8529 6.17252 13.4547 5.5C13.3766 5.3305 13.2903 5.16379 13.1959 5.00028C13.1015 4.83676 13.0002 4.67873 12.8925 4.52644C12.0093 4.71119 11.0683 4.57573 10.2498 4.10316C9.43122 3.63058 8.84345 2.88338 8.56182 2.02603C8.18817 1.99048 7.8119 1.98997 7.43817 2.02481C7.1567 2.88265 6.5687 3.63035 5.74979 4.10316C4.93085 4.57597 3.98934 4.71133 3.10571 4.52614C2.88864 4.83243 2.70097 5.1585 2.54492 5.4999C3.14661 6.17245 3.49979 7.05512 3.49979 8.00027C3.49979 8.94542 3.14662 9.82802 2.54492 10.5005C2.623 10.67 2.70923 10.8368 2.80364 11.0003C2.89804 11.1638 2.9993 11.3218 3.10709 11.4741C3.99033 11.2894 4.93128 11.4248 5.74979 11.8974ZM7.99977 10.2503C6.75717 10.2503 5.74979 9.24295 5.74979 8.00027C5.74979 6.75767 6.75717 5.75028 7.99977 5.75028C9.24245 5.75028 10.2498 6.75767 10.2498 8.00027C10.2498 9.24295 9.24245 10.2503 7.99977 10.2503ZM7.99977 8.75027C8.414 8.75027 8.74977 8.4145 8.74977 8.00027C8.74977 7.58605 8.414 7.25027 7.99977 7.25027C7.58555 7.25027 7.24977 7.58605 7.24977 8.00027C7.24977 8.4145 7.58555 8.75027 7.99977 8.75027Z" fill="#475067"/>
</svg>
